<svg id="chicago" xmlns="http://www.w3.org/2000/svg" viewBox="0 0 1865 777"><defs><style>.cls-1{fill:#003ba2}</style></defs><path class="cls-1" d="M1503.38 487.41v6.19h-3.94v6.19h-6.75v-43.88h-15.75v2.82h-3.38V457h-10.12v-5h-16.32l-3.93 1.68V457h-3.94v1.69h-1.69l-5.62-2.25v-1.69h-7.88v1.69l-9 2.25v32.62h-3.37V488h-6.75v-2.82L1401 484v-17.4h-9.56l-1.69-24.75h-5.06V403.6h-1.13v28.69h-.56v9.56h-8.44v-9h-1.12v-27.56h-1.13v27.56h-.56v9h-3.94L1363 485l-10.94-.4v6.75h-2.25V479l-2.81-1.69h-24.19v2.25H1320V484h-9.56v19.12h-4.5v1.69h-2.25v-21.9h-3.94v-5.06l-5.06-6.19h-3.38l-4.5 5.07v4.5h-3.94v2.25h-6.18v3.93l-1.69-2.25v-11.81h-1.12v11.81l-1.69 2.82v9h-1.13V493h-3.94v-57.34H1257v-9.56l-10.69-.56v-1.69l-2.81-1.12-9 .56v2.81l-7.88 1.13-8.43-2.25-38.82 2.25v9l-2.81.56v65.81h-4.5V379.41l-9.56-2.25-7.31-2.81-14.07 1.65v2.25l-7.31 1.12v111.42h-3.37V493h-3.94v-49.5l-4.5-11.81-8.44-11.82v-8.43h-1.68v8.43l-6.19 10.13-6.19 13.5v28.69h-5.06V416h-1.13v-8.44h-4.5v-23.65h-1.12v23.63h-10.13V412h-3.94v56.81h-14.06v4.5l-11.81-1.12v-1.69H1041v2.25h-6.75v45.56H1032v-27.52l-14.63-16.88h-1.68l1.12 11.25h-1.12l-1.13-11.25h-1.12l-10.13 15.75v-1.12H991.5v-1.13h-7.31v-23.62H969v3.94l-4.5 1.68H960v4.5h-30.38l.57 2.82-5.06 5.62v4.5h-2v-7.59l-4.79-4.78h-6.75v-6.75h-25.84v43.87h-4.5v3.4H879v-85.5h-3.94v-6.19h-2.25l-17.43 2.81v28.13h-2.82v5.62h-6.75v11.81h-3.37v-7.87l-18-1.69-3.38-3.37h-17.43V461l-19.13.56c-5.06-9-15.75-10.13-15.75-10.13v-15.77l-8.44-1.12-29.81 3.94V484h-5.62v-11.77h-5.63v-3.38l-16.31-1.12v-22.5l-34.88-3.38-15.18 2.81v37.13h-3.94v-5.06h-3.38v-1.13h-4.5v1.13h-6.19v-6.19h-1.68v-5.63h-7.32l-19.12 3.38v-24.75h-3.94v-3.38h-1.12v-2.25h-3.38V421.6h-.56v16.31h-1.13V421.6h-.56V439h-6.75v-1.13h-1.12v-14.58h-1.13v14.62h-1.12v-14.62h-1.13v15.19h-1.12v1.12H582v3.94h-5.06v27.56h-1.13v21.38l-1.69-1.69V475.6h-1.68V470h-29.82v23.6h-7.87v4.5h-6.19V493h-1.12v-54h-5.06v-41.59h-3.94v-2.25h-5.06V362h-2.82v-17.46h-1.12v6.75l-2.82-1.13v-26.43h-1.12v19.12h-1.69v16.31h-1.69v-5.62l-1.12-1.13v-18.56h-.56v-10.69h-1.13v19.13h-.56V353h-2.81v-8.44h-1.13V362l-2.81 1.1v32.63h-4.5v43.87h-5.63v55.69h-19.68V462.1h-6.75v-26.44h-1.69v-8.43h-2.25V425h-3.38v-4H438v4h-2.81l-2.25 2.25v2.25h-2.25V461h-3.38v9.56l-16.87 3.37v11.82h-10.13V488H384v79.87h1125v-80.46zM497.62 359.73l-1.12.56v-6.19h1.12zm11.82 1.12l-2.25-1.12v-7.32l2.25.57z"/><path class="cls-1" d="M1506 476h23v9h11v42h4v-56l17-6h26v103h-81M388.5 445.5h-4v-2h-26v18h-20v-3h-32v101h-3v-112h-40v6h-3v134h128"/><path class="cls-1" d="M1578 490h56v60h-59M242 463h26v49h-26z"/></svg>