<svg id="far-stars" xmlns="http://www.w3.org/2000/svg" viewBox="0 0 1865 777"><defs><style>.cls-1{fill:#93a6c9}</style></defs><path class="cls-1" d="M1232.11 262a.75.75 0 000-1.5.75.75 0 000 1.5zM1388.91 293.28a.75.75 0 000-1.5.75.75 0 000 1.5zM1284 317a.75.75 0 000-1.5.75.75 0 000 1.5zM1507.62 377a.75.75 0 000-1.5.75.75 0 000 1.5zM1453.89 407a.75.75 0 000-1.5.75.75 0 000 1.5zM1435.14 324.51a.75.75 0 000-1.5.75.75 0 000 1.5zM1562.6 262a.75.75 0 000-1.5.75.75 0 000 1.5zM1026.55 357a.75.75 0 000-1.5.75.75 0 000 1.5zM1030.3 420.73a.75.75 0 000-1.5.75.75 0 000 1.5zM1075.28 424.47a.75.75 0 000-1.5.75.75 0 000 1.5zM1030.3 463.21a.75.75 0 000-1.5.75.75 0 000 1.5zM924.09 399.48a.75.75 0 000-1.5.75.75 0 000 1.5zM911.6 424.47a.75.75 0 000-1.5.75.75 0 000 1.5zM639.2 352a.75.75 0 000-1.5.75.75 0 000 1.5zM754.16 314.52a.75.75 0 000-1.5.75.75 0 000 1.5zM766.65 350.75a.75.75 0 000-1.5.75.75 0 000 1.5zM661.69 323.26a.75.75 0 000-1.5.75.75 0 000 1.5zM521.75 283.28a.75.75 0 000-1.5.75.75 0 000 1.5zM433 253.29a.75.75 0 000-1.5.75.75 0 000 1.5zM385.55 375.74a.75.75 0 000-1.5.75.75 0 000 1.5zM288.09 290.78a.75.75 0 000-1.5.75.75 0 000 1.5zM374.31 224.55a.75.75 0 000-1.5.75.75 0 000 1.5zM615.46 184.57a.75.75 0 000-1.5.75.75 0 000 1.5zM1443.89 345.38a.38.38 0 000-.75.38.38 0 000 .75zM1501.37 316.64a.38.38 0 000-.75.38.38 0 000 .75zM1342.68 380.37a.38.38 0 000-.75.38.38 0 000 .75zM1220.23 299.15a.38.38 0 000-.75.38.38 0 000 .75zM1311.44 191.69a.38.38 0 000-.75.38.38 0 000 .75zM1229 185.44a.38.38 0 000-.75.38.38 0 000 .75zM1090.28 270.41a.38.38 0 000-.75.38.38 0 000 .75zM1027.8 239.17a.38.38 0 000-.75.38.38 0 000 .75zM996.56 275.41a.38.38 0 000-.75.38.38 0 000 .75zM1075.28 277.91a.38.38 0 000-.75.38.38 0 000 .75zM840.38 281.65a.38.38 0 000-.75.38.38 0 000 .75zM840.38 206.68a.38.38 0 000-.75.38.38 0 000 .75zM930.34 210.43a.38.38 0 000-.75.38.38 0 000 .75zM911.6 232.92a.38.38 0 000-.75.38.38 0 000 .75zM970.33 367.87a.38.38 0 000-.75.38.38 0 000 .75zM990.32 399.11a.38.38 0 000-.75.38.38 0 000 .75zM931.59 421.6a.38.38 0 000-.75.38.38 0 000 .75zM1012.81 462.83a.38.38 0 000-.75.38.38 0 000 .75zM947.83 442.84a.38.38 0 000-.75.38.38 0 000 .75zM790.39 426.6a.38.38 0 000-.75.38.38 0 000 .75zM829.13 447.84a.38.38 0 000-.75.38.38 0 000 .75zM829.13 390.36a.38.38 0 000-.75.38.38 0 000 .75zM548 364.12a.38.38 0 000-.75.38.38 0 000 .75zM635.45 359.12a.38.38 0 000-.75.38.38 0 000 .75zM705.43 335.38a.38.38 0 000-.75.38.38 0 000 .75zM444.28 390.36a.38.38 0 000-.75.38.38 0 000 .75zM351.81 410.35a.38.38 0 000-.75.38.38 0 000 .75zM399.3 350.38a.38.38 0 000-.75.38.38 0 000 .75zM473 280.41a.38.38 0 000-.75.38.38 0 000 .75zM434.28 206.68a.38.38 0 000-.75.38.38 0 000 .75zM380.55 266.66a.38.38 0 000-.75.38.38 0 000 .75zM409.29 311.64a.38.38 0 000-.75.38.38 0 000 .75zM264.35 280.41a.38.38 0 000-.75.38.38 0 000 .75zM423 279.16a.38.38 0 000-.75.38.38 0 000 .75zM756.66 254.17a.38.38 0 000-.75.38.38 0 000 .75zM926.59 279.16a.38.38 0 000-.75.38.38 0 000 .75zM951.58 315.39a.38.38 0 000-.75.38.38 0 000 .75zM1196.49 364.12a.38.38 0 000-.75.38.38 0 000 .75zM1242.72 317.89a.38.38 0 000-.75.38.38 0 000 .75zM1294 407.86a.38.38 0 000-.75.38.38 0 000 .75zM1242.72 415.35a.38.38 0 000-.75.38.38 0 000 .75zM1501.37 441.59a.38.38 0 000-.75.38.38 0 000 .75zM1320.19 460.34a.38.38 0 000-.75.38.38 0 000 .75zM1571.34 390.36a.38.38 0 000-.75.38.38 0 000 .75zM1475.13 355.38a.38.38 0 000-.75.38.38 0 000 .75zM1498.87 282.9a.38.38 0 000-.75.38.38 0 000 .75zM1575.09 205.43a.38.38 0 000-.75.38.38 0 000 .75zM1475.13 181.69a.38.38 0 000-.75.38.38 0 000 .75zM1625.07 309.14a.38.38 0 000-.75.38.38 0 000 .75zM1107.77 174.2a.38.38 0 000-.75.38.38 0 000 .75zM1181.49 224.18a.38.38 0 000-.75.38.38 0 000 .75zM1034.05 215.43a.38.38 0 000-.75.38.38 0 000 .75zM1119 210.43a.38.38 0 000-.75.38.38 0 000 .75zM1289 237.92a.38.38 0 000-.75.38.38 0 000 .75zM1280.2 276.66a.38.38 0 000-.75.38.38 0 000 .75zM1131.51 319.14a.38.38 0 000-.75.38.38 0 000 .75zM1176.5 355.38a.38.38 0 000-.75.38.38 0 000 .75zM1036.55 307.89a.38.38 0 000-.75.38.38 0 000 .75zM880.36 410.35a.38.38 0 000-.75.38.38 0 000 .75zM914.1 365.37a.38.38 0 000-.75.38.38 0 000 .75zM812.89 254.17a.38.38 0 000-.75.38.38 0 000 .75zM907.85 191.69a.38.38 0 000-.75.38.38 0 000 .75zM579.23 317.89a.38.38 0 000-.75.38.38 0 000 .75zM588 356.63a.38.38 0 000-.75.38.38 0 000 .75zM485.51 412.85a.38.38 0 000-.75.38.38 0 000 .75zM485.51 337.88a.38.38 0 000-.75.38.38 0 000 .75zM453 355.38a.38.38 0 000-.75.38.38 0 000 .75zM579.23 311.64a.38.38 0 000-.75.38.38 0 000 .75zM514.25 216.68a.38.38 0 000-.75.38.38 0 000 .75zM549.24 190.44a.38.38 0 000-.75.38.38 0 000 .75zM274.34 395.36a.38.38 0 000-.75.38.38 0 000 .75zM429.28 432.85a.38.38 0 000-.75.38.38 0 000 .75zM379.3 422.85a.38.38 0 000-.75.38.38 0 000 .75zM211.87 235.42a.38.38 0 000-.75.38.38 0 000 .75zM181.88 196.69a.38.38 0 000-.75.38.38 0 000 .75zM229.36 176.7a.38.38 0 000-.75.38.38 0 000 .75zM219.37 197.94a.38.38 0 000-.75.38.38 0 000 .75zM1545.1 234.17a.38.38 0 000-.75.38.38 0 000 .75zM1677.55 205.43a.38.38 0 000-.75.38.38 0 000 .75zM1597.58 274.16a.38.38 0 000-.75.38.38 0 000 .75zM876.61 270.41a.38.38 0 000-.75.38.38 0 000 .75zM800.39 285.4a.38.38 0 000-.75.38.38 0 000 .75zM666.69 386.61a.38.38 0 000-.75.38.38 0 000 .75zM460.52 317.89a.38.38 0 000-.75.38.38 0 000 .75zM831.63 345.26a1.5 1.5 0 000-3 1.5 1.5 0 000 3zM876.61 337.88a.38.38 0 000-.75.38.38 0 000 .75zM877.86 375.37a.38.38 0 000-.75.38.38 0 000 .75zM780.4 367.87a.38.38 0 000-.75.38.38 0 000 .75zM836.63 365.37a.38.38 0 000-.75.38.38 0 000 .75zM849.12 330.39a.38.38 0 000-.75.38.38 0 000 .75zM796.64 316.64a.38.38 0 000-.75.38.38 0 000 .75zM495.51 400.36a.38.38 0 000-.75.38.38 0 000 .75zM498 444.09a.38.38 0 000-.75.38.38 0 000 .75zM534.24 452.84a.38.38 0 000-.75.38.38 0 000 .75zM580.48 470.33a.38.38 0 000-.75.38.38 0 000 .75zM1061.54 484.08a.38.38 0 000-.75.38.38 0 000 .75zM1109 442.84a.38.38 0 000-.75.38.38 0 000 .75zM1130.26 389.11a.38.38 0 000-.75.38.38 0 000 .75zM1135.26 349.13a.38.38 0 000-.75.38.38 0 000 .75zM1184 385.36a.38.38 0 000-.75.38.38 0 000 .75zM1161.5 419.1a.38.38 0 000-.75.38.38 0 000 .75zM1264 391.61a.38.38 0 000-.75.38.38 0 000 .75zM1232.72 366.62a.38.38 0 000-.75.38.38 0 000 .75zM1325.19 357.88a.38.38 0 000-.75.38.38 0 000 .75zM1321.44 322.89a.38.38 0 000-.75.38.38 0 000 .75zM1157.75 316.64a.38.38 0 000-.75.38.38 0 000 .75zM1401.41 375.37a.38.38 0 000-.75.38.38 0 000 .75zM1373.92 392.86a.38.38 0 000-.75.38.38 0 000 .75zM1406.41 444.09a.38.38 0 000-.75.38.38 0 000 .75zM1326.44 241.67a.38.38 0 000-.75.38.38 0 000 .75zM1413.9 246.67a.38.38 0 000-.75.38.38 0 000 .75zM1537.61 356.63a.38.38 0 000-.75.38.38 0 000 .75zM1472.63 391.61a.38.38 0 000-.75.38.38 0 000 .75zM681.69 350.38a.38.38 0 000-.75.38.38 0 000 .75zM701.68 254.17a.38.38 0 000-.75.38.38 0 000 .75zM710.43 215.43a.38.38 0 000-.75.38.38 0 000 .75zM664.19 210.43a.38.38 0 000-.75.38.38 0 000 .75zM702.93 181.69a.38.38 0 000-.75.38.38 0 000 .75zM328.07 332.88a.38.38 0 000-.75.38.38 0 000 .75zM331.82 282.9a.38.38 0 000-.75.38.38 0 000 .75zM290.59 276.66a.38.38 0 000-.75.38.38 0 000 .75zM290.59 224.18a.38.38 0 000-.75.38.38 0 000 .75zM341.82 207.93a.38.38 0 000-.75.38.38 0 000 .75zM299.34 386.61a.38.38 0 000-.75.38.38 0 000 .75zM304.33 391.61a.38.38 0 000-.75.38.38 0 000 .75zM308.08 400.36a.38.38 0 000-.75.38.38 0 000 .75zM445.53 407.86a.38.38 0 000-.75.38.38 0 000 .75zM535.49 419.1a.38.38 0 000-.75.38.38 0 000 .75zM395.55 447.84a.38.38 0 000-.75.38.38 0 000 .75zM323.08 447.84a.38.38 0 000-.75.38.38 0 000 .75zM545.49 472.83a.38.38 0 000-.75.38.38 0 000 .75zM560.48 444.09a.38.38 0 000-.75.38.38 0 000 .75zM546.74 314.14a.38.38 0 000-.75.38.38 0 000 .75zM561.73 286.65a.38.38 0 000-.75.38.38 0 000 .75zM767.9 266.66a.38.38 0 000-.75.38.38 0 000 .75zM726.67 271.66a.38.38 0 000-.75.38.38 0 000 .75zM880.36 210.43a.38.38 0 000-.75.38.38 0 000 .75zM1180.24 185.44a.38.38 0 000-.75.38.38 0 000 .75zM991.57 177.94a.38.38 0 000-.75.38.38 0 000 .75zM1375.17 200.44a.38.38 0 000-.75.38.38 0 000 .75zM1367.67 219.18a.38.38 0 000-.75.38.38 0 000 .75zM1391.41 206.68a.38.38 0 000-.75.38.38 0 000 .75zM1202.73 177.94a.38.38 0 000-.75.38.38 0 000 .75zM1736.39 61.66a.38.38 0 000-.75.38.38 0 000 .75zM1773.24 61.66a.38.38 0 000-.75.38.38 0 000 .75zM1800 109.67a.38.38 0 000-.75.38.38 0 000 .75zM1735.28 144.28a.38.38 0 000-.75.38.38 0 000 .75zM1813.43 197.87a.38.38 0 000-.75.38.38 0 000 .75zM1711.83 194.52a.38.38 0 000-.75.38.38 0 000 .75zM1779.94 151a.38.38 0 000-.75.38.38 0 000 .75zM1822.37 5.83a.38.38 0 000-.75.38.38 0 000 .75zM1426 70.59a.38.38 0 000-.75.38.38 0 000 .75zM1386.92 96.27a.38.38 0 000-.75.38.38 0 000 .75zM1475.13 111.9a.38.38 0 000-.75.38.38 0 000 .75zM1453.91 163.26a.38.38 0 000-.75.38.38 0 000 .75zM1379.1 125.3a.38.38 0 000-.75.38.38 0 000 .75zM1400.32 122a.38.38 0 000-.75.38.38 0 000 .75zM1615.81 289.43a.38.38 0 000-.75.38.38 0 000 .75zM1614.69 237a.38.38 0 000-.75.38.38 0 000 .75zM1695.08 266a.38.38 0 000-.75.38.38 0 000 .75zM1695.08 325.16a.38.38 0 000-.75.38.38 0 000 .75zM1711.83 324a.38.38 0 000-.75.38.38 0 000 .75zM1700.66 311.76a.38.38 0 000-.75.38.38 0 000 .75zM1694 384.33a.38.38 0 000-.75.38.38 0 000 .75zM1549.93 396.62a.38.38 0 000-.75.38.38 0 000 .75zM1041.91 263.75a.38.38 0 000-.75.38.38 0 000 .75zM904.58 37.09a.38.38 0 000-.75.38.38 0 000 .75zM929.14 53.84a.38.38 0 000-.75.38.38 0 000 .75zM843.17 91.8a.38.38 0 000-.75.38.38 0 000 .75zM786.23 46a.38.38 0 000-.75.38.38 0 000 .75zM768.36 75.06a.38.38 0 000-.75.38.38 0 000 .75zM789.58 73.94a.38.38 0 000-.75.38.38 0 000 .75zM1028.51 15.88a.38.38 0 000-.75.38.38 0 000 .75zM1065.36 15.88a.38.38 0 000-.75.38.38 0 000 .75zM1106.67 34.86a.38.38 0 000-.75.38.38 0 000 .75zM1154.68 95.15a.38.38 0 000-.75.38.38 0 000 .75zM1091 120.83a.38.38 0 000-.75.38.38 0 000 .75zM989.44 82.87a.38.38 0 000-.75.38.38 0 000 .75zM857.69 108.55a.38.38 0 000-.75.38.38 0 000 .75zM910.16 117.48a.38.38 0 000-.75.38.38 0 000 .75zM1230.61 25.93a.38.38 0 000-.75.38.38 0 000 .75zM1282 101.85a.38.38 0 000-.75.38.38 0 000 .75zM1231.72 162.14a.38.38 0 000-.75.38.38 0 000 .75zM807.44 25.93a.38.38 0 000-.75.38.38 0 000 .75zM865.5 22.58a.38.38 0 000-.75.38.38 0 000 .75zM1027.4 184.48a.38.38 0 000-.75.38.38 0 000 .75zM532.78 126.42a.38.38 0 000-.75.38.38 0 000 .75zM532.78 41.56a.38.38 0 000-.75.38.38 0 000 .75zM454.62 63.89a.38.38 0 000-.75.38.38 0 000 .75zM430.06 56.07a.38.38 0 000-.75.38.38 0 000 .75zM446.8 30.39a.38.38 0 000-.75.38.38 0 000 .75zM320.64 24.81a.38.38 0 000-.75.38.38 0 000 .75zM350.78 37.09a.38.38 0 000-.75.38.38 0 000 .75zM344.08 75.06a.38.38 0 000-.75.38.38 0 000 .75zM232.43 114.13a.38.38 0 000-.75.38.38 0 000 .75zM251.41 103a.38.38 0 000-.75.38.38 0 000 .75zM230.2 152.1a.38.38 0 000-.75.38.38 0 000 .75zM289.37 171.08a.38.38 0 000-.75.38.38 0 000 .75zM121.9 172.19a.38.38 0 000-.75.38.38 0 000 .75zM133.06 203.46a.38.38 0 000-.75.38.38 0 000 .75zM97.33 203.46a.38.38 0 000-.75.38.38 0 000 .75zM34.81 222.44a.38.38 0 000-.75.38.38 0 000 .75zM50.44 243.65a.38.38 0 000-.75.38.38 0 000 .75zM108.5 244.77a.38.38 0 000-.75.38.38 0 000 .75zM176.61 308.41a.38.38 0 000-.75.38.38 0 000 .75zM182.19 300.59a.38.38 0 000-.75.38.38 0 000 .75zM190 312.88a.38.38 0 000-.75.38.38 0 000 .75zM242.48 285a.38.38 0 000-.75.38.38 0 000 .75zM216.8 250.35a.38.38 0 000-.75.38.38 0 000 .75zM212.33 286.08a.38.38 0 000-.75.38.38 0 000 .75zM251.41 382.1a.38.38 0 000-.75.38.38 0 000 .75zM195.59 419a.38.38 0 000-.75.38.38 0 000 .75zM255.88 420.06a.38.38 0 000-.75.38.38 0 000 .75zM29.22 56.07a.38.38 0 000-.75.38.38 0 000 .75zM65 56.07a.38.38 0 000-.75.38.38 0 000 .75zM56 122a.38.38 0 000-.75.38.38 0 000 .75zM27 132a.38.38 0 000-.75.38.38 0 000 .75zM134.18 38.21a.38.38 0 000-.75.38.38 0 000 .75zM92.87 86.22a.38.38 0 000-.75.38.38 0 000 .75zM166.56 103a.38.38 0 000-.75.38.38 0 000 .75zM222.38 43.79a.38.38 0 000-.75.38.38 0 000 .75zM190 23.7a.38.38 0 000-.75.38.38 0 000 .75zM138.64 19.23a.38.38 0 000-.75.38.38 0 000 .75zM298.31 96.27a.38.38 0 000-.75.38.38 0 000 .75zM337.39 126.42a.38.38 0 000-.75.38.38 0 000 .75zM252.53 70.59a.38.38 0 000-.75.38.38 0 000 .75zM398.79 72.82a.38.38 0 000-.75.38.38 0 000 .75zM368.65 28.16a.38.38 0 000-.75.38.38 0 000 .75zM372 140.93a.38.38 0 000-.75.38.38 0 000 .75zM437.87 156.56a.38.38 0 000-.75.38.38 0 000 .75zM354.13 194.52a.38.38 0 000-.75.38.38 0 000 .75zM441.22 288.31a.38.38 0 000-.75.38.38 0 000 .75zM1545.25 157.44a.38.38 0 000-.75.38.38 0 000 .75zM1545.25 198a.38.38 0 000-.75.38.38 0 000 .75zM862.87 164.69a.38.38 0 000-.75.38.38 0 000 .75zM1064.25 124.12a.38.38 0 000-.75.38.38 0 000 .75zM696.25 153.1a.38.38 0 000-.75.38.38 0 000 .75zM897.64 244.37a.38.38 0 000-.75.38.38 0 000 .75zM820.85 242.92a.38.38 0 000-.75.38.38 0 000 .75zM1028 300.87a.38.38 0 000-.75.38.38 0 000 .75zM1107.71 273.35a.38.38 0 000-.75.38.38 0 000 .75zM1074.39 192.21a.38.38 0 000-.75.38.38 0 000 .75zM1067.15 241.47a.38.38 0 000-.75.38.38 0 000 .75zM753.12 94.9a.38.38 0 000-.75.38.38 0 000 .75zM770.53 101.23a.38.38 0 000-.75.38.38 0 000 .75zM750 115.47a.38.38 0 000-.75.38.38 0 000 .75zM719.89 115.47a.38.38 0 000-.75.38.38 0 000 .75zM896.08 454.68a.38.38 0 000-.75.38.38 0 000 .75zM916.81 442.09a.38.38 0 000-.75.38.38 0 000 .75zM929.39 460.6a.38.38 0 000-.75.38.38 0 000 .75zM997.49 439.87a.38.38 0 000-.75.38.38 0 000 .75zM967.88 426.55a.38.38 0 000-.75.38.38 0 000 .75zM1014.46 394.9a.38.38 0 000-.75.38.38 0 000 .75zM1051 396.64a.38.38 0 000-.75.38.38 0 000 .75zM1034.75 421a.38.38 0 000-.75.38.38 0 000 .75zM1067.21 438.37a.38.38 0 000-.75.38.38 0 000 .75zM1046.92 436.63a.38.38 0 000-.75.38.38 0 000 .75zM1000.55 461.56a.38.38 0 000-.75.38.38 0 000 .75zM967.52 458.08a.38.38 0 000-.75.38.38 0 000 .75zM1071.84 409.39a.38.38 0 000-.75.38.38 0 000 .75zM929.26 406.49a.38.38 0 000-.75.38.38 0 000 .75zM1263.27 447.4a.38.38 0 000-.75.38.38 0 000 .75zM1281.25 447.4a.38.38 0 000-.75.38.38 0 000 .75zM1304.76 479.9a.38.38 0 000-.75.38.38 0 000 .75zM1270.88 475.76a.38.38 0 000-.75.38.38 0 000 .75zM1303.38 435a.38.38 0 000-.75.38.38 0 000 .75zM1175.47 414.87a.38.38 0 000-.75.38.38 0 000 .75zM1203.66 418.79a.38.38 0 000-.75.38.38 0 000 .75zM1130.06 432.88a.38.38 0 000-.75.38.38 0 000 .75zM1109.7 402.35a.38.38 0 000-.75.38.38 0 000 .75zM1527.49 471.73a.38.38 0 000-.75.38.38 0 000 .75zM1393.48 405.25a.38.38 0 000-.75.38.38 0 000 .75zM1609.79 478.06a.38.38 0 000-.75.38.38 0 000 .75zM1634.05 466.45a.38.38 0 000-.75.38.38 0 000 .75zM792.05 446.4a.38.38 0 000-.75.38.38 0 000 .75zM806.83 425.3a.38.38 0 000-.75.38.38 0 000 .75zM624.29 442.18a.38.38 0 000-.75.38.38 0 000 .75zM649.61 455.9a.38.38 0 000-.75.38.38 0 000 .75zM621.12 453.79a.38.38 0 000-.75.38.38 0 000 .75zM547.26 463.28a.38.38 0 000-.75.38.38 0 000 .75zM475.51 459.06a.38.38 0 000-.75.38.38 0 000 .75zM457.58 432.69a.38.38 0 000-.75.38.38 0 000 .75zM463.91 404.2a.38.38 0 000-.75.38.38 0 000 .75zM462.85 369.38a.38.38 0 000-.75.38.38 0 000 .75zM420.65 449.57a.38.38 0 000-.75.38.38 0 000 .75zM700.26 370.43a.38.38 0 000-.75.38.38 0 000 .75zM684.43 382a.38.38 0 000-.75.38.38 0 000 .75z"/></svg>