<svg id="foreground-smoke" xmlns="http://www.w3.org/2000/svg" viewBox="0 0 1865 777"><defs><style>.cls-1{fill:#fff}</style></defs><path class="cls-1" d="M15.6 327.23c0-4.35.51-9.06 0-13.37a9.38 9.38 0 00-2.39-5.53c-1.65-1.81-4.15-4.23-5.11-6.42-1.71-3.92.16-9.39-.48-13.59-.85-5.51-4.87-8.58-8.61-12.32l.49 501.5 1867.5.5-1.68-514.28c-3.13 3.19-6.27 6.65-6.35 11.28 0 1.93 1 3.32-.61 4.55-2.1 1.67-3.63 2.58-4.86 5.15-2 4.13-3.24 7.89-3 12.52.23 4.24 3 7.77 2.07 12.18-2.65.31-5.27 2.15-7.24 4s-4.23 4-5.24 6.33c-.8 1.84-.12 5.43-.12 7.49v6.88l-.73.2c-4.54 0-9.31-.2-13.51 1.82-2.92 1.4-7.43 4.94-8.91 7.75-2 3.89-1.22 9.11-2 13.32-.77 4.36-3.55 3.09-6.64 5.38-3.6 2.67-6.73 6.7-9.73 10-4.94 5.47-10.78 15.88-6.3 23.08 1.19 1.91 4.71 3.86 4 5.89-.31.84-1.44 1.64-2 2.45a15.49 15.49 0 00-1.9 4.87c-1.32 5.48-.51 11.39.71 16.8.59 2.64 1.62 4.44-1.17 5.5-2.24.85-4.61 1.14-6.86 2.13-5 2.22-7.33 5.87-9.74 10.73-2.14 4.34-.69 10.68-.85 15.46-.09 2.49-.25 4.69-3 4.17-1.3-.25-2.46-1.41-3.71-1.92-1.52-.63-3.13-1-4.7-1.56-2.81-1-5.22-.93-8.14-1-3.21 0-3.85.52-6.55 1.93s-5.4 2.63-8.08 3.86c-2.17 1-4.53 3.62-6.78 4-2.91.52-4.14-.53-6.55 1.77a48.77 48.77 0 00-4.86 5.1 48.06 48.06 0 00-6.67 10.95c-2 4.68 1 13.6-3.42 16.08-1.52.85-4.56.63-6.4 1.52-2 1-3.14 2.94-5 4.19-2.88 1.94-6.38 3.05-7.42 6.77-.43 1.51-.1 3.21-.11 4.76 0 1.87.19 3.5-1.89 4-1.89.47-3.56-.3-5.49.46-4.44 1.75-9.47 4.57-12.05 8.64a11 11 0 00-1.94 5c-.28 2.46.54 5.11-.05 7.53-3.54 0-6.8-2.4-10.53-2.36a17.93 17.93 0 00-5.44.44c-2.09.63-4 1.71-6.21 1.49h-1c-6.47 3.35-15.58 5.75-17.28 14.11-.81 3.93-.17 4-4 5.48a24.92 24.92 0 00-8.2 4.92c-5.29 5.06-9.37 12.83-8.1 20.28a25.56 25.56 0 001.33 5.14c.59 1.44 1.72 2.42 2.42 3.77s2.42 8.22 1.06 9.46c-4.32-.65-10.2-.31-13.5 2.84a18 18 0 00-4.36 6.35c-.91 2.27-.48 4.47-3.6 4.26-2.41-.16-5.49-1.55-7.85-2.07a81.3 81.3 0 00-17.48-1.49c-6.4 0-10.83 2.2-16.22 5.31-2.49 1.44-5.21 4.44-8.11 4.38-2.38 0-4.55-2.41-6.54-3.4-3-1.52-7.47-1.19-10.81-1-5.3.38-12.44 1.71-16.53 5.09q-1.74 1.49-3.46 3a22.73 22.73 0 01-2.07 2.52c-1.29.6-3.4.12-4.8.11-8.44-.09-15.26 4.82-18.5 12.6-1 2.3-.92 2.77-2.81 3.85a4.54 4.54 0 00-2.74.9c-.79.68-1.6 1.36-2.41 2a26.22 26.22 0 00-7.46 8.89c-1.28 2.37-1.35 3.81-3.87 3.05-1.42-.43-2.6-1.71-4-2.1-2.65-.76-6.11-.14-8.9-.16a17.55 17.55 0 00-4.84.75c-1.79.41-3.23-.22-4.67 1.12-2.72 2.5-6.68 6.7-6.72 10.06l.13-.29c-1.19-1.19-2.4-2.37-3.57-3.59-1.56-1.64-2.87-2-5-2.53-5.07-1.36-11.62-3.22-16.58-.7a21.71 21.71 0 01-7 2.34 16 16 0 00-8.39 3.66 57.81 57.81 0 00-4.76 4.5s-2.37 3.07-3.48 3.39c-.41.12-1.42 0-2 .09a17.77 17.77 0 00-2.38.75 13 13 0 00-5.49 3.7 67.07 67.07 0 00-7.35 10.39c-.77 1.4-1.91 4-3.43 4.58-.74.27-.75.11-1.51.17a14.8 14.8 0 00-9.77 5.2c-1.25 1.45-1.79 5.08-3.62 5.74-.93.33-2.37 0-3.37 0a23.88 23.88 0 00-5.86.3c-3 .75-5.58 2.7-8.53 3.58a44.47 44.47 0 00-5.66 1.56c-.62.27-2.87 1.78-3.74 1.89-1.16.14-.52.12-1.58-.42a55.65 55.65 0 01-8-4.82c-5.82-4.43-12.88-9.6-20.3-10.23a35.15 35.15 0 00-7 .51c-2.88.33-5.29.08-7.39 2.46-1.22 1.38-1.36 3-3.42 3.17-1 .07-2.12-.07-3.15-.07-6.09-.05-12.83.2-18.17 3.39-2.55 1.52-4.14 3.81-6.5 5.44-1.44 1-3.13 1.07-4.79 1.43-4.45 1-8 3.2-9.62 7.48-.91 2.33-1.85 1.9-4.1 2.29a15.71 15.71 0 00-5.47 2c-1.3.85-3.19 3.72-4.54 3.94-1.16.19-3.1-1.09-4.32-1.44-6.87-1.91-14.42-4.57-21.24-.87-.84.46-2.22 1.83-3.11 2-1.29.22-2.09-.94-3.14-1.67a35.09 35.09 0 00-8-4.36c-5.13-1.88-10.34-.91-15.58-.42-2.08.19-3.06 0-4.45-1.33a26.35 26.35 0 00-4-2.72c-1.45-1-2.31-2.58-3.83-3.47a22 22 0 00-6.77-2.25c-3.76-.75-8.56-1.17-12.17.34-3 1.25-5.44 3.59-8.31 4.85-3.36 1.47-7.06 1.73-10.29 3.57s-5.44 5.09-7.44 8.08c-.86 1.3-1.13 2.27-2.69 2.1a15.63 15.63 0 01-3.2-1.26c-5.83-2.25-14.22-3.14-19.43 1-2.54 2-5.67 4.48-9.06 4.18-1.47-.13-2.83-.67-4.32-.75a16.79 16.79 0 00-4.51.55c-3.35.68-7.17 1.24-10 3.39a25.49 25.49 0 00-3.52 3.81c-1 1.15-1.1 1.85-2.56 1.59-1.09-.19-2.3-1.14-3.44-1.45s-2.36-.72-3.46-1c-2.41-.5-4.52.2-6.81.56-5.53.87-12.67 1.88-16.11 6.92l-1.37-.69c.1-2.5-3.72-3.43-5.48-4.43-3-1.67-7-3.31-10.4-3-3.92.33-7.78 1.42-11.65 2.06-.58.09-3.84.94-4.94-.1-.18-.93-.39-1.84-.66-2.75a11.11 11.11 0 00-2.46-2.38c-1-.87-1.79-1.85-2.82-2.66-2.85-2.26-6.47-3.1-10-3.7-1.36-.24-5.54-.47-6.44-1.45-.48-.52-.11-1.56-.16-2-.32-3.18-.84-5.4-3.22-7.43-3.64-3.1-6.42-4.16-11.43-4-2.79.07-6.67 1.94-9.42 1.07-1.12-.35-1.68-1.29-2.56-2a17.86 17.86 0 00-10.17-3.42c-5.33-.19-14.49 1.12-17.14 6.24-.84 1.61-.61 1.85-2.48 2.05-.83.09-1.68 0-2.53.12-6.39.68-13.1 1.66-18.87 4.7-2.44 1.29-4.44 4.12-7.43 4.19-1.64 0-3.75-1.13-5.37-1.37a22.09 22.09 0 00-3.53-.12c-3.32 0-7.14-.32-10.18 1.34-1.1.61-2 1.48-3.19 2.08a14 14 0 00-3 2.07c-1.85 1.68-2.93 2.6-5.58 1.75s-5.08-2.42-7.86-3.15a43.59 43.59 0 00-28.8 2.82c-2.44 1.14-3.33.86-4.24-1.6a9.58 9.58 0 00-3.58-4.69 13.84 13.84 0 00-7.09-2c-1.79 0-3.68.31-5.33-.62s-2.29-3-3.48-4.54c-1.77-2.33-4.24-2.15-6.86-2.54a16.35 16.35 0 00-6.5.16c-1.49.32-4 1.5-5.53 1-1.13-.38-2.55-2.65-3.73-3.39-4.07-2.57-8.27-1.91-12.74-.52s-8.39 2.65-10.46 7.52c-.68 1.58.07 4.65-1.42 5.6-.66.42-2.54.08-3.32.2a26 26 0 00-3.07.87c-3.11.89-5.08 2.62-7.42 4.71-1.55 1.4-2.59 1.15-4.54 1.14-2.22 0-4.48-.13-6.69 0-3.36.28-5.32 1.4-8.2 2.86-.82-.77-1.43-2.89-1.87-3.9-.62-1.43-.82-3-1.73-4.34a22.11 22.11 0 00-7.6-6.61 11.26 11.26 0 00-5.11-1.1c-1.56 0-2 .23-3.11-.8-2.43-2.21-3.39-3-6.75-2.12a49.84 49.84 0 01-5.93 1.57c-1.65.2-2.22-.46-3-1.87-1.07-2.09-2.08-4.71-4.3-5.69-2.82-1.26-5.14-3.24-8-4.38a20.44 20.44 0 00-7.17-1.78c-5.59-.13-10.77 2-16.23 2.84a23.59 23.59 0 00-7.92 2.32 20.47 20.47 0 01-3.21 1.42 14.76 14.76 0 00-2.32 1 12.39 12.39 0 01-1.67 1.28c-2.28.68-3.41-2.69-4.76-4s-3.62-3.63-5.21-4.07-4.48 0-6.11.31c-2.73.58-3 .18-3.75-2.56a8.48 8.48 0 00-4.28-5.19c-.81-.33-1.88-.34-2.74-.62a13 13 0 00-3.56-.9c-1.85-.08-3.73 0-5.59 0a7.21 7.21 0 00-5.77 2.05l-.45-.28c.37-3-2.33-3-4.26-3.5a11.56 11.56 0 00-4-.74c-1.69.1-3 1.09-4.41.12-.86-.58-1.41-2.16-2.1-3s-1.66-1.61-2.46-2.42c-1.62-1.66-3.16-2.24-5.1-3.31s-2.9-2.19-5-2.87c-3.65-1.2-6.86-1.21-10.71-1.21h-4.36c-2.77 0-3.35 1-5.5 2.66s-4.18 3.23-6.36 4.75c-.76.53-1.34 1.24-2.06 1.78-1.7 1.31-2 1.48-3.2-.15a25.62 25.62 0 00-3.07-4.06 17.76 17.76 0 00-6.59-3.76c-5.62-1.77-11.91 0-17.47.74-2.39.32-3.08-.48-3.71-3.16-.54-2.28-.63-4.13-1.52-6.27-.53-1.28-.55-3.41-1.19-4.56-.49-.88-1.53-1.48-2.2-2.18-2.2-2.31.22-3.27 1.16-5.63a12.86 12.86 0 00.47-4.9c0-2.23.46-4.9-.6-7-1.32-2.57-4.48-4-7.12-4.69-.81-.21-1.86-.6-2.72-.74-1.27-.2-3 .33-4.17-.35s-2-2.3-3-3.24-2-1.81-3-2.88a25.47 25.47 0 00-7.27-5.24c-4.34-2.13-11.58-2.65-16.36-1.66-1.78.37-3.23 1.49-4.89 2-2.75.89-4.09-2.45-6.21-4a24.85 24.85 0 00-6.81-3.7c-2.09-.58-4.78-.12-6.9-.14-5.34 0-11 2.07-14.22 6.4-1.28 1.72-1.71 1.41-3.52.68a58.32 58.32 0 00-6-2c-2.73-.76-4.61-1.12-7.33 0-2.89 1.19-5.49 2.89-8.33 4.14-3.38 1.48-7.64-1.75-10.85-2.79-2.54-.83-4.77-.56-7.33-1a26.29 26.29 0 00-4.12-.55h-3.87a6.49 6.49 0 00-2.67.19 1.89 1.89 0 01-2.19.57c-.56-1.95-.35-3.88-1.39-5.63a20.57 20.57 0 00-4.73-5c-2.29-2-1.48-5.16-1.5-7.88 0-4.89-4.43-6.74-7.64-9.66-1.89-1.73-2.72-4.09-5-5.58-2.71-1.77-6.48-2.36-9.57-3a18.8 18.8 0 00-8.11 0c-2.26.51-3.87 1.69-6 2.49-1.73.65-2.73.73-3.63-.85-1.64-2.89-2.68-5.92-4.74-8.59-2.86-3.71-6.78-7-11.6-7.11-1.29 0-2.65-.07-3.93 0-2.66.15-3.07.67-3.17 3.54l-.87.4c0-2-1-4.39-3.11-5a29 29 0 00-7.2-1.18c-1.53 0-2 .07-2.41-1.5a16.13 16.13 0 00-.42-2.37 13.78 13.78 0 00-1.24-1.71 18.94 18.94 0 00-6.7-6.58 33.84 33.84 0 00-7.39-2.49 27.75 27.75 0 00-4.44-1c-.62 0-1.19.28-1.76-.17-.72-.57-.5-2.43-.49-3.16.05-2.68.6-6.33-.09-9a8.51 8.51 0 00-2.23-3.9c-1.21-1-2.68-1.82-3.94-2.78s-2.38-1.4-2.7-2.87.56-3.18-.25-4.64c-1.72-3.06-6.06-3-8.92-3.93a40.81 40.81 0 00-4.75-1c-1.07-.2-3-.14-4-.63a27 27 0 01-3.59-2.86 8.32 8.32 0 00-4.34-2c-3.58-.34-7.27.35-10.85.05-1.86-.16-2.18-1.8-2.87-3.5a21.41 21.41 0 00-2.84-5.42c-1.59-2-4.94-4.08-7.27-5.12-1.27-.57-2.92-.52-3.1-2.26a24.8 24.8 0 01.39-3.25v-1.94a27.45 27.45 0 00-.08-5.59 11.48 11.48 0 00-1.59-3.19 28.21 28.21 0 00-1.67-3.29 32.25 32.25 0 00-2.79-3.3c-1.55-1.56-1.87-3.33-3.31-5-2.37-2.8-5.14-6-8.75-7.16s-7.44-1.1-11.21-1.18c-1.61 0-3-.54-4.63-.58a32.47 32.47 0 00-4.93.29 14.66 14.66 0 00-3-5.78c-1.23-1.22-3.48-2.11-5-2.92s-4.2-1.48-4.51-3.17c-.22-1.22.49-2.8.59-4a25.09 25.09 0 00.07-4 9.1 9.1 0 00-1.93-4.86 27.12 27.12 0 00-7.94-6.21 16.13 16.13 0 00-5.2-1.7 15.4 15.4 0 00-3.92-.56l-.56 1.68c0-3.29.53-6.75-2-9.3a25.16 25.16 0 00-4.56-3.4c-1.52-.94-3.43-1.55-3.49-3.48 0-1.58.24-2.75-.79-4.12a14.07 14.07 0 00-5.99-3.85c-1.86-.76-3.28-2-5.16-2.64a11.49 11.49 0 01-4.61-2.95c-1.3-1.29-2.18-2.15-2.25-4a18.51 18.51 0 00-.68-5.62c-.62-1.89-1.58-3-.21-4.86s4.3-2.5 6.19-3.86c1.33-1 1.22-3.51.34-4.92-1.28-2-3.9-3-5.14-5a2.31 2.31 0 01-.27-2.51c.32-.6 1-1 1.35-1.66.23-.44.26-1 .46-1.5.91-2.11 2-3.68.56-5.91-.93-1.43-2.23-2.11-3.58-3.07-1.81-1.27-3-2.59-5.16-3.38-2.7-1-5.41-2.23-8.33-2.2h-7.27c-1.3 0-4.56.59-5.55-.18-.33-2.05 2.17-4.13 2.12-6.3s-2.84-4.72-4.63-5.8-4.42-1.25-5.39-2.95c-.77-1.38-.47-3.08-.47-4.58 0-3.23-.77-6.44-1.17-9.64a24.62 24.62 0 00-2.17-7.93 11.86 11.86 0 00-2.4-2.9c-1.05-1.08-1.8-2.43-2.92-3.41a20.72 20.72 0 00-4.86-3.34c-2-.83-4.21.22-6-.95"/><path class="cls-1" d="M453.26 644.27c.8-5.2 7.86-7.84 11.65-7.81.95 0 2.63.31 3.48 0 1.16-.44 1.79-2.51 2.34-3.55 1.81-3.4 5-5.4 7.37-8.37 3.56-4.5 10.72-4.54 15.65-2.59 1.18.47 2.82 2.29 4 2.38 1.66.12 2.64-1.71 3.47-2.78 1.81-2.35 4-4.82 6.89-5.87a22.36 22.36 0 018.26-1.24c2.95 0 4.78 1 7.24 2.53 1.68 1 2 .76 3.2-.81a13.53 13.53 0 013.15-3.21 25.18 25.18 0 0110.8-4.79c2.13-.32 5 .56 7.09 1.12a8.83 8.83 0 014.78 3 13.11 13.11 0 012.08 5.19c.44 2.08 0 3.68 2.63 4.06a8.14 8.14 0 014.6 1.68 17.57 17.57 0 015.33 4.68c.73 1 1.42 2.94 2.44 3.72a2.9 2.9 0 002.48.49c1.92-.26 3.79-.54 5.73-.77 4-.46 8.52-1.22 12.28.82a57.82 57.82 0 015.76 3.62c1.53 1.1 2.56 2.75 4 4 2.47 2.14 6.15-.48 8.92-1.31a28 28 0 014.75-1.28c2.2-.23 4.22.7 6-.74 1.55-1.24 2.62-3.06 4.25-4.22a13.68 13.68 0 015.46-2c1.09-.18 2.13 0 3.23-.27 2.07-.42 3.49-1.33 5.66-1.3a40 40 0 019.15 1.58c4.28 1.06 8.13 2.92 10.52 6.81 1.67 2.71 1.84 5.64 3 8.55 1.28 3.34 6.42 2.19 9.46 3.1 4.05 1.22 7.87 5.8 10.12 9.26a20 20 0 012.48 5.35c.35 1.18.28 3.46 1.34 4.28.61.46 4.57.69 4.44.67 1.58.21 3.17.41 4.74.68 2.48.43 4.6 1.65 6.89 2.64 4.37 1.87 8.84 3.64 12.09 7.34 1 1.16 1.7 2.68 2.75 3.79 1.48 1.54 2.14.5 4-.26 3.6-1.51 8.9-1.18 11.9 1.53 1.7 1.54 2.32 3.62 3 5.66.64 1.83.82 3.77 3 4.28 3.29.77 7-.11 10.36.41a43.59 43.59 0 017.52 2.31 36.64 36.64 0 019.51 4.59c2.27 1.64 2.89 3.92 4.55 5.94 1.89 2.29 4.65-.16 6.9-1 1.77-.64 3.69-1.11 5.51-1.58 4.07-1 9.32 3.81 12 6.56 1.94 2 1.69 4.38 2.8 6.58.61 1.22 1.75 1.39 3 1.74 2.93.81 5.94 1.2 8.87 2 6.63 1.9 10.77 5.9 14.64 11.44a23.1 23.1 0 012.56 5.77c.55 1.5 1.09 4.65 2.33 5.7-.09.05-398.66 57.63-374.4-100.1z"/><path class="cls-1" d="M454.7 644.67c1-4.07 5.41-6.3 9.35-6.68 2.29-.21 4.32.65 6.18-1.07.91-.84 1.2-2.21 1.8-3.25a23.67 23.67 0 014.25-5c3.4-3.38 5.85-6.45 11.12-6.44a13.8 13.8 0 016.6 1.57c1.12.63 2 1.76 3.37 2 2.45.39 3.86-1.8 5.18-3.45 3.55-4.41 8-6.71 13.83-6.38 3.2.19 4.7 2.11 7.53 2.85a3.56 3.56 0 002.07.11c2.15-.66 4.16-4.32 6.1-5.6 5-3.32 10.88-4.82 16.52-2.1 5 2.42 3.31 5.88 5.31 9.68 1.3 2.47 4.45 2 6.66 3.22a16 16 0 015.33 4.54c.84 1.16 1.36 2.63 2.41 3.63 2.56 2.43 6.55.92 9.62.54 5-.61 9.25-.83 13.71 1.88a27.61 27.61 0 015.3 4.06c1.13 1.14 2.11 2.55 3.73 3.06 2.72.85 5.51-.82 8-1.73a22.89 22.89 0 017.36-1.41c1.75-.08 2.86 0 4.4-1 1.39-.89 2.18-2.43 3.42-3.48 2.48-2.11 4.9-2.18 8-2.68 1.77-.29 3.46-.89 5.24-1.17 3.25-.51 6.81.46 10 1.32 5.57 1.51 9.38 4.27 11.16 10 .75 2.4.94 5.2 3.15 6.77 2 1.43 4.69 1.05 7 1.43 4.78.79 8.38 4.95 10.85 8.87a20.89 20.89 0 012.54 6c.33 1.26.29 2.6 1.29 3.58 1.24 1.23 3.11 1.18 4.77 1.36 8.28.9 18.95 4.44 24.31 11.23 1.51 1.9 2.3 3.91 5 4 1.08 0 3-1.25 3.76-1.48 3.28-1 7.14-.36 9.47 2.17 2.17 2.35 1.92 5.84 3.93 8.15 2.14 2.46 6 2 8.87 1.91 5.78-.08 11.68 2 16.82 4.59 3.32 1.67 4.77 3.56 6.91 6.41a7.11 7.11 0 002.62 2.63c2.86 1.18 6.37-1.55 8.91-2.33 3.08-.94 5.26-1.21 8.24.41a19.39 19.39 0 015.73 4.91c2.21 2.91 1.51 6.56 5.14 8.22 4.69 2.16 10.09 1.75 14.75 4.28a25.44 25.44 0 0110.61 11.56c1.33 3 1.63 6.55 3.77 9.13l.66-2.51c-12.68 1.83-25.85 3.22-38.76 4.48-30.73 3-61.58 4.92-92.45 5.54-37 .73-74.19-.26-110.88-5.26-31.79-4.32-65.18-11.28-93-28.1-23.09-14-39-35.88-38.4-63.63a89.45 89.45 0 011-11.33c.29-1.89-2.6-2.7-2.89-.8-4.13 27.56 5.25 52.85 27.14 70.27 24.61 19.59 57 28.21 87.42 33.67 36.91 6.62 74.63 8.46 112.07 8.37 33.27-.07 66.53-1.81 99.66-4.77q16.7-1.49 33.34-3.43c4.88-.58 11.12-.39 15.8-2a3.47 3.47 0 01.73-.1c1.23-.18 1.28-1.75.66-2.51-2.44-2.94-2.56-7.86-4.65-11.16a31.38 31.38 0 00-7.38-8.07 26.75 26.75 0 00-9.93-4.52c-2.7-.67-6.22-.68-8.35-2.59-1.85-1.66-1.8-3.95-3.21-6-3.4-4.91-9.55-9-15.55-7.51-4.24 1-8.29 4.37-11.39-.22-2.3-3.41-5.7-5.23-9.43-6.8-3.55-1.5-7.55-3.17-11.39-3.68-2.27-.3-4.76.35-7-.07-5.19-1-4.44-3-6-6.31a10.09 10.09 0 00-6-5.62 14.34 14.34 0 00-5.32-.76c-1.64.07-3.24 1-4.78 1.08-2.63.12 1 3.2-3.72-1.74-.44-.46-.72-1.09-1.16-1.55a24.59 24.59 0 00-3.91-3.37 61.65 61.65 0 00-12.71-6.09 38.64 38.64 0 00-9.12-1.7c-2.56-.31-2.53-.39-3.16-2.74a23.45 23.45 0 00-2.08-5.48c-3.17-5.72-8.06-10.94-14.77-11.67-3.51-.39-4.92-1.14-6.32-4.51-.61-1.5-.79-3.16-1.49-4.64a15.44 15.44 0 00-7.69-7.34c-8.15-3.78-16.26-3.26-24.69-1.25-3.81.9-5 3.06-7.88 5.26-2.54 1.92-4.48 1-7.26 1.53a38.27 38.27 0 00-6.5 2.12c-3.2 1.2-4.93.57-7.33-1.84a25.93 25.93 0 00-4.69-3.57 18.3 18.3 0 00-11.31-3.22c-2.2.1-4.39.44-6.57.72a15.15 15.15 0 01-2.3.32c-5.3-.17-3.07-.77-4.87-2.8-2.35-2.66-4.51-5.15-7.87-6.66-1.52-.69-3.49-.46-4.52-2-.65-1-.61-3.46-1-4.62a10 10 0 00-5.78-6c-7.56-3.14-15.62-1-21.65 4.35-1.56 1.4-2.09 3.12-4.3 2.61-1.9-.44-3.38-1.83-5.44-2.17a19.85 19.85 0 00-12.88 2.36c-1.67 1-2.8 2.57-4.24 3.87-1.73 1.57-.3 1.35-2.87 2.08-2.25.64-1.89.14-3.68-.73a17.51 17.51 0 00-10.15-1.19c-4.19.75-6.36 3.18-9.21 6.09a57.38 57.38 0 00-4.13 4.27c-1.76 2.24-1.83 4.65-5 5.2-5.92 1.05-12.5 1.78-14.23 8.84-.58 1.86 2.31 2.66 2.77.78zM3.85 280.2a31.1 31.1 0 01.58-5.4c.33-2-1.35-3-1.3-4.74s3.05-4.08 4.15-5.29A11.16 11.16 0 009.54 259a40.35 40.35 0 00.63-6.62c0-2.09.41-4.61-.29-6.58a15 15 0 01-1-2.2 15.77 15.77 0 010-2.57c0-1.07-.08-1.69.71-2.52 1.07-1.14 2.58-2 3.74-3.18 2.86-2.83 3.19-6.93 2.05-10.73a11.26 11.26 0 01-.51-6.4c.54-2.33 1.22-4.6 1.68-6.95.43-2.17.82-4 .27-6.18a8.63 8.63 0 00-1.59-3.21c-.8-1.11-1.38-2.41-2.24-3.46-.52-.65-1.06-1.28-1.57-1.93s-1.84-1.58-2.08-2.26c-.65-1.83 2.09-3.85 3.07-5.08s2.06-2.66 3.14-4a21.8 21.8 0 003.61-6.2c1.25-3.27 1.23-6.58 2.19-9.88.8-2.75 3.71-3.73 5.81-5.56 2.92-2.56 6.66-5.38 8.15-9.18a13.5 13.5 0 00.81-5 14.2 14.2 0 00-.66-2.3c-.6-2.92 2.31-4.93 3.41-7.36.75-1.65 1.71-3.39 1.37-5.18-.5-2.72-3.73-5.18-5.77-7-.74-.66-1.48-1-1.87-1.93-.75-1.8.26-3.91.34-5.8a19.77 19.77 0 00-2.61-10.53 15.18 15.18 0 00-5.89-6c-1.45-.77-2.89-1.86-4.4-2.48-1.67-.69-2.47-.53-2.42-2.79.06-2.42 1.46-4.83 2.07-7.14a58 58 0 001.08-5.71 17.34 17.34 0 00-1.36-10 32.06 32.06 0 00-4.44-6c-.58-.7-1.85-1.71-1.85-2.63 0-2.46 6.85-4.8 8.81-5.63 3-1.27 5.43-3.23 6.56-6.37s3-6 4-9.07c1.14-3.68.49-6.89-2.45-9.3A31.16 31.16 0 0026.37 33a30 30 0 01-3-1.43 20 20 0 00-2-1.62c-1.4-.76-2.07-.7-2.32-2.59s-.05-3.59-.64-5.51c-.72-2.37-1.31-5.4-2.82-7.43S9.7 10.73 9.45 8.13c-.17-1.78.91-3.75 1.23-5.47a22.48 22.48 0 00.13-3.76L-2.5-.5l2 338z"/><path class="cls-1" d="M5.35 280.2c.11-2.6.55-5 .31-7.49-.39-4 .79-4.43 2.92-7.18 3.39-4.41 3.79-12.9 3.14-18.2-.35-2.83-2.07-4.85-.59-7.6 1.28-2.38 3.93-3.51 5.2-6a12 12 0 001.14-6.27 33.24 33.24 0 00-.62-3.28 20.55 20.55 0 01.36-9.07c1.24-5.14 2.17-9.33-.67-14a38.54 38.54 0 00-3.26-4.73c-3-3.59-.07-5.82 2.29-8.83 3.74-4.77 5.29-8.83 6.53-14.76.8-3.87 2.21-5.18 5.2-7.46a43.08 43.08 0 006.63-6c3.16-3.71 3.49-6.93 3.37-11.5-.13-5.26 6.23-9.26 4-14.82a12.44 12.44 0 00-2.82-3.85 32.9 32.9 0 01-3-2.66c-3.14-4.19-1-3.72-1.09-6.67-.24-5.53-1.57-10.91-5.58-15a26.3 26.3 0 00-6.58-4.55c-2.69-1.43-3.65-1.13-2.64-4.73 1.64-5.81 3.8-11.42 2.34-17.57a17.37 17.37 0 00-3.09-6.4c-1.83-2.49-5.23-4.28-1.86-6.88 3.72-2.89 8.3-2.7 11.32-6.7 1.9-2.53 3-5.89 4.27-8.75 1.1-2.42 2.12-5 1.91-7.73-.39-5.07-4.92-8.06-8.86-10.41a24.28 24.28 0 01-3.49-2.37c-1.63-1.74-1.55-3.05-1.91-5.41A29.31 29.31 0 0018.13 16a12.38 12.38 0 00-4.33-5.07c-3.89-3-1.45-7.8-1.49-12a1.51 1.51 0 00-1.5-1.5L-2.5-2A1.53 1.53 0 00-4-.5l.68 115 1.08 181.68.24 41.33c0 1.95 2.86 1.9 3 0l4.35-57.31c.15-1.93-2.85-1.92-3 0L-2 337.51h3l-.68-115L-.76 40.86-1-.5-2.5 1 10.81.4l-1.5-1.5C9.36 3.62 6.18 8 10 11.79c1.64 1.62 3.72 2.45 4.94 4.52 2 3.42 1.76 7.4 2.57 11.09.72 3.29 3.73 4.69 6.56 6.26 3.34 1.86 7.63 4.68 7.39 9.08-.2 3.61-2.68 7.8-4.33 11-2.89 5.63-7.88 5.67-12.62 8.84-2.25 1.5-3.68 3.29-2.12 5.86 1.88 3.09 4.88 5 6.2 8.58 1.27 3.44.89 7 .25 10.53-.61 3.32-4.7 10.06-1.95 13.2.9 1 2.78 1.45 3.86 2 3.36 1.74 6.34 3.86 8.26 7.2 2.33 4 2.47 7.86 2 12.31-.23 2.08-.17 3.39 1.1 5.1 1.38 1.87 3.92 2.84 5.23 4.83 2.72 4.11.27 6.55-1.76 9.68A8 8 0 0034 147c0 1.26.67 2.11.65 3.5-.07 3.1-1.86 5.61-3.9 7.76-3 3.17-8 5.17-10.19 8.92-1.4 2.35-1.32 5.43-1.9 8-.87 3.95-2.74 6.95-5.19 10.14-1.75 2.27-6.31 5.65-5.57 9 .3 1.33 1.63 2.17 2.5 3.12 2.52 2.77 5.39 6.77 5.19 10.65s-2.09 7.47-2.38 11.32c-.24 3.26 1.47 6.17 1.32 9.42-.25 5.45-5.35 5.8-6.85 10a12 12 0 00-.25 5.17c.29 2.31 1.07 1.55 1.36 5a38.33 38.33 0 01-.3 6.68c-.47 4.73-1.77 7.09-4.74 10.48-1.12 1.28-2.12 2.52-2.07 4.29.05 1.44.67 1.34.91 2.65.42 2.3-.14 4.78-.24 7.09-.08 1.94 2.92 1.93 3 .01zM1862.17 272.44c-3.63.35-5.15-3.91-5.12-6.8a24.7 24.7 0 010-2.72c.07-.57.64-1.25.58-1.79-.16-1.18-1.73-1-2.57-1.36a14 14 0 01-2.75-2.23 9.29 9.29 0 01-3.55-9.39c.27-1.09.66-2.09.84-3.19.14-.84.71-1.61.76-2.44.14-2.47-2.51-4.59-3.57-6.54s-.88-3.92-.9-6a6.09 6.09 0 01.41-3.28c.35-.61 1-1.14 1.35-1.73.53-.81.75-1.77 1.31-2.56 1-1.49 4.2-3.11 4.34-5 .08-1.13-.69-2.28-1-3.34a10.42 10.42 0 01-.38-4c.13-1.3 1.16-2.28 1.93-3.27.44-.56 1.48-1.53 1.54-2.12s-2.06-1.34-2.64-1.62a22.43 22.43 0 01-3.77-2.24 13.4 13.4 0 01-3.19-3.44c-1.29-2-3-4-3.15-6.42-.06-.86.34-2.1.15-2.91-.37-1.59-3.84-1.57-5-2.43-1.77-1.29-4-2.53-5.35-4.26a12.51 12.51 0 01-2.75-5.1 13 13 0 01-.29-4.34c.36-1.48 0-1.72-.91-3.06a7.45 7.45 0 01-1.61-3.93c-.28-2.61 1.21-5.7 2.41-8 .61-1.17 1.6-2.08 2.26-3.18.86-1.43.14-3.57-.17-5.11a12 12 0 011.84-9.29 25.71 25.71 0 013.43-4.26c.85-.82 2.12-1 3.13-1.63a7.73 7.73 0 003-2.86c.9-2 .26-4.43 1.06-6.54 1.14-3 4.53-3.9 6.21-6.6.6-1 1.33-1.77 1.85-2.76.28-.51.49-1 .79-1.5.9-1.51-.54-2.32-1.83-3.12-1.12-.69-2.2-.93-2.84-2.12-1.09-2-.5-4 0-6.09.61-2.61 1.16-4.48 3.1-6.39 1.24-1.22 1.19-1.74-.1-3.3-1-1.2-1.72-1.9-1.81-3.53a9.15 9.15 0 011-5.1c.65-1.18 1.53-1.9 1.35-3.34-.17-1.28-.83-2.4-.9-3.71s0-2.92 0-4.37c0-.81.27-2.14-.15-2.88-.29-.52-1.24-.74-1.68-.89a7.86 7.86 0 01-2.84-1.82 11.55 11.55 0 01-3.63-5.93c-.11-.5-.4-1.29-.47-1.84-.11-.85.31-1.46.24-2.26-.12-1.62-1.93-2.72-2.7-4-1-1.57-.93-3.76-1.26-5.53-.51-2.79 1.46-5.53 3.28-7.43a7 7 0 002-3.1c.65-2.18 1-4.14 2.4-6 1.22-1.64 2.94-2.76 4.39-4.1 1.28-1.18 1.06-3.37 1.45-5s.79-4.29 1.74-5.87c.69-1.16 1.63-2.25 2.36-3.41.4-.63 1-.79 1.33-1.32a3.88 3.88 0 00.54-2.81V2.87c-.06-2.67 1.47-3.72 3.73-4.72h4.26v296.12z"/><path class="cls-1" d="M1862.17 270.94c-6.57-.26-1.38-9.15-4.35-11.9-.64-.59-3.07-1.38-3.59-1.76a10.52 10.52 0 01-3.89-5c-1.2-4 2-7.17 1.36-11-.29-1.63-1.32-2.73-2.21-4.08-2.63-4-2.69-7.14-.56-11.52 2.23-4.61 6.61-5.5 5.2-11-.77-3-1.37-3.82.73-6.95.38-.56 1-1 1.33-1.58.48-.87.8-1.39.45-2.35-.46-1.23-1.84-1.52-2.88-2-3.85-2-8.33-5.41-9.47-9.91-.49-2 .65-4-.9-5.66-.94-1-2.36-1-3.53-1.49a15.24 15.24 0 01-7.88-6.63c-1.64-3.09-.39-6.07-1.54-9s-2.62-1.84-2-6.56a13.79 13.79 0 012-4.89c1.06-1.76 2.58-3 2.85-5.13.31-2.39-1-4.74-.79-7.17.38-5.08 3.9-8.3 7.89-10.63 5.48-3.2 3.27-9.6 7.77-13.45 2.34-2 7-6.47 5.94-9.88-.59-1.93-2.5-2-3.73-3.24-2.2-2.21-1.46-5-.71-7.4.66-2.13 2.19-3.19 3-5.06a3.25 3.25 0 00.33-3c-.19-.53-.67-.85-.89-1.35-2.53-5.92-.86-4.92.38-9.22.55-1.89-.07-3-.39-4.85-.43-2.45.46-5.25-.13-7.61-.37-1.5-.78-1.68-2-2.53-3.12-2.08-6-3.62-6.57-7.91-.39-2.75.09-3.6-1.47-6a11.36 11.36 0 01-2.27-5.32c-.54-4.23 1.46-5.23 3.54-8.3s2.09-6.56 4.53-9.34c1.48-1.67 3.54-2.55 4.5-4.66 1.34-3 .77-6.51 2.32-9.49 1.13-2.18 3.54-3.66 4.29-6 1-3-1.65-8.47 2.06-10.29 1.3-.64 3.12-.31 4.57-.31l-1.5-1.5v296.25l3-.4-3.34-21.87c-.29-1.91-3.18-1.1-2.9.79l3.33 21.84c.26 1.7 3 1.25 3-.4V-1.91a1.52 1.52 0 00-1.5-1.5c-3.13 0-6.11-.34-8.29 2.48-1.63 2.1-1.06 4.63-1.2 7.12-.22 3.89-2.25 5.27-4 8.47-1.32 2.39-1.29 5-2.1 7.55-1.24 3.88-4.58 5.46-6.36 8.89-.68 1.32-.9 2.79-1.44 4.15a20.93 20.93 0 01-3 4.56c-1.65 2.26-2.66 4.32-2.57 7.17a15.27 15.27 0 001.7 6.59 19.64 19.64 0 012 5.37 23.78 23.78 0 00.9 3.41 13.81 13.81 0 004.49 6c2.51 1.87 3.39 1.81 3.32 5.24s.93 6.16-.25 9.2c-1 2.52-1.68 5.15-.75 7.81.34 1 1.21 1.65 1.44 2.69.39 1.84-.62 2.15-1.49 3.76a17.7 17.7 0 00-2.09 8.65 6 6 0 002.08 4.48c1.73 1.47 3 1.86 2.12 4.46-.72 2.06-3 3.58-4.48 5-1.87 1.71-3.22 3.12-3.66 5.7s-1.39 5.35-3.52 7.14c-1 .83-2.36 1.13-3.35 2.08a20.07 20.07 0 00-4.19 5.91c-1.54 3.35-.92 5.78-.87 9.24.1 6.09-6.41 10.81-4.28 17.28.58 1.74 1.85 3.09 2.11 5 .16 1.07 0 2.23.11 3.33a13.83 13.83 0 003.83 7.67 20.41 20.41 0 006 4.36c1.17.54 2.16.38 3 1.47s.48 3.28 1 4.69a21.52 21.52 0 004.47 6.85 16.64 16.64 0 002.64 2.24c.71.49 3.66 1.45 4.12 2.23s0 .66-1 2a8 8 0 00-1.31 2.33c-.86 2.7.73 4.61.85 7.09.1 2.09-4.46 6.62-5.69 8.79a12.25 12.25 0 00-1.31 8.34c.5 3.68 4.33 6.39 4.09 10.1-.24 3.49-2.21 6.08-1.1 9.73a14.44 14.44 0 005.53 7.13c.58.41 2.32.86 2.67 1.27.21.26-.13 2.3-.15 2.81-.17 4.52 1.57 9.45 6.67 9.66 1.86-.08 1.86-3.08-.07-3.14z"/></svg>