<svg id="jetpack" xmlns="http://www.w3.org/2000/svg" viewBox="0 0 1865 777"><defs><style>.cls-1{fill:#8bb8ff;}</style></defs><title>Artboard 1</title><path class="cls-1" d="M844.47,326.61c-5.06.37-10.17.21-15.17,1.05a35.77,35.77,0,0,1-4.36.63c-1.07,0-2.16-.06-3.23.06-2.59.29-4.86,1.81-7.31,2.68-2.19.78-4.59,1.06-6.54,2.31a4.21,4.21,0,0,0-.45,2.6l-2.84,1.68c-.62.37-1.31.85-1.33,1.57a2.3,2.3,0,0,0,.2.81l.87,2.23a2.22,2.22,0,0,0,1.53-.23c.5-.23,1-.54,1.49-.73a2,2,0,0,0,.39-.18,1.09,1.09,0,0,0,.31-.33,4,4,0,0,0,.55-1.11c4.35-1.49,8.68-3.1,12.89-4.93a1.88,1.88,0,0,1,1,0,32.4,32.4,0,0,1,4.45,1,2,2,0,0,1-.43,1.25,6.1,6.1,0,0,1-1.75,2c-.31.2-.67.34-1,.56a4.37,4.37,0,0,0-1.32,2,46.69,46.69,0,0,0-1.86,5.37,134.13,134.13,0,0,1-5,14.77c-.41,1-.84,2-1.26,3q-1.94,4.59-3.78,9.21c-1,2.41-3,4.12-4.59,6.22s-2.9,4-4.24,6a4.63,4.63,0,0,0-.66,1.29,2.38,2.38,0,0,0,.82,2.41c.15,1.27-.7,2.5-1.49,3.52l-3.66,4.77a3.14,3.14,0,0,0-.65,1.15,2.91,2.91,0,0,0,0,1l.53,5.41c.08.81.88,1.29,1.66,1.57a2.36,2.36,0,0,0,1.4.19,1.75,1.75,0,0,0,1.12-1.53,15.15,15.15,0,0,0-.06-2,10.69,10.69,0,0,1,1.2-4.41q1.67-3.76,3.59-7.4a3.69,3.69,0,0,0,2.69-.82,3.44,3.44,0,0,0,.56-1,22,22,0,0,1,2.76-4.92c.35-.45.73-.88,1.11-1.3l2.85-3.21a2.81,2.81,0,0,1,.84-.73c.18-.08.39-.13.57-.23a2.41,2.41,0,0,0,.7-.72l7.19-9.87a25.07,25.07,0,0,1,3.72-4.36,36.83,36.83,0,0,1-.59,5.33,9.67,9.67,0,0,0-.27,2.73,2.79,2.79,0,0,0,1.36,2.26,2.76,2.76,0,0,0,.8.25,2.33,2.33,0,0,0,2.35-.73,3.24,3.24,0,0,0,.35-.88c.5-1.79,1-3.57,1.59-5.34a5.61,5.61,0,0,1,2.72-.23c.48.11.93.34,1.41.43a4.85,4.85,0,0,0,1,0l1.16,0a19.06,19.06,0,0,1,4.31.87l1.34.29,1.12.25,1.92.42a4.87,4.87,0,0,0,3.89-1.34,2.6,2.6,0,0,0,1.15-2.34c-.09-.42-.21-.83-.3-1.25a3,3,0,0,0-.3-.91A3.32,3.32,0,0,0,853,364l-1.58-1.61c-.2-.19-.29-.53-.49-.72a20.37,20.37,0,0,0-3.44-2.54c-2.32-1.5-4.58-3.09-6.78-4.75-.32-.25-.67-.57-.62-1a5.59,5.59,0,0,1,.7-1.83c.82-1.5,1.89-2.86,2.67-4.38a9.11,9.11,0,0,1,1.81-2.9,7.15,7.15,0,0,1,1,2.17l.35,1.11a2.61,2.61,0,0,1,.18.78,5.14,5.14,0,0,1-.33,1.42,1.32,1.32,0,0,0,.28,1.36c.2.17.49.23.67.42s.19.29.34.39a.76.76,0,0,0,.61,0,5.56,5.56,0,0,0,1.7-.68,38.69,38.69,0,0,1-.46-3.86.37.37,0,0,1,.06-.29.4.4,0,0,1,.22-.09,1.08,1.08,0,0,0,.66-1.47,12.53,12.53,0,0,1-.83-4.33,1.62,1.62,0,0,1,.37-1,24.14,24.14,0,0,1,2.08-2.44l2.39-2.56a6.3,6.3,0,0,0,.81-1,3.31,3.31,0,0,0,.43-2.4.27.27,0,0,1,0-.41,1,1,0,0,1,.45-.12,1.83,1.83,0,0,0,.76-.24,2.62,2.62,0,0,0,.81-1.12,11.33,11.33,0,0,0,1-2.66,6.4,6.4,0,0,0,0-2.31,11.81,11.81,0,0,0-.35-1.54L858,322.1a17.17,17.17,0,0,0-.7-1.66,9.55,9.55,0,0,0-.69-1.49,6.26,6.26,0,0,0-5.17-3.1,5.42,5.42,0,0,0-5,3.2c-.1.23-.61,1.18-.74,1.43a4,4,0,0,0-.26,2.34,16,16,0,0,0,.54,2.65,4.11,4.11,0,0,1-.72.84A1.23,1.23,0,0,1,844.47,326.61Z"/><path class="cls-1" d="M853.06,320.75s14.48-7.77.91,2.08"/><path class="cls-1" d="M839,327.1a4.18,4.18,0,0,0-4.6-1.42,11.85,11.85,0,0,0-4.36,2.68,236.08,236.08,0,0,0-18.51,17.41,37.46,37.46,0,0,0,6.63,4.78l6.62-7.74c.91-1.06,2-1.38,2.88-2.43C831.42,336.05,835.18,331.42,839,327.1Z"/><polyline class="cls-1" points="812.84 346.08 810.77 347.2 816.14 351.24 817.13 349.11"/><path class="cls-1" d="M388.66,578.77l83.4-9a6.39,6.39,0,0,0,1.89-1.88,3.35,3.35,0,0,1,1-1.25,9.48,9.48,0,0,1,2.67-1.31,7.75,7.75,0,0,1,3.17-.87,11.44,11.44,0,0,1,2.24.4c.54.16,1.05.64,1.61.35s.81-1.2,1.14-1.67a12,12,0,0,1,.9-1.22,11.42,11.42,0,0,1,3.67-3c1.92-.81,4.38-.43,6.36-.22a5.63,5.63,0,0,1,2.36.51,1.4,1.4,0,0,0,1.39.29c.28-.19.35-.66.49-.94a15.14,15.14,0,0,1,1.25-1.93c.42-.61.63-1.3,1.06-1.89a16.1,16.1,0,0,1,2.34-2.09c1.17-1.11,3.15-1.32,4.69-1.58a17.44,17.44,0,0,1,6.67.36c.81.17.64.33,1.1-.3a5.16,5.16,0,0,1,1.3-1.43c1.29-.94,2.64-1.75,3.83-2.81a4.82,4.82,0,0,1,4.37-1.41c.9.15,2,.92,2.83.29.54-.4.57-1.11.82-1.69.17-.4.41-.74.62-1.14a12.33,12.33,0,0,1,2.39-3.21c1.33-1.29,2.38-2.81,3.69-4.13a15.29,15.29,0,0,1,2.87-2.26,5.07,5.07,0,0,1,4-.84,4.28,4.28,0,0,0,2.57-.39,7.3,7.3,0,0,1,2.34-.57c1,0,1.34.87,2.11,1.4s2.72,1.45,3.74,1.24,1-1.09,1.52-1.85c.33-.53.55-.51,1-.89s.36-.63.61-.89a10.29,10.29,0,0,1,2.49-1.63,8.32,8.32,0,0,1,5.62-.86,10.38,10.38,0,0,1,2.24.63c.67.27,1.52.31,2.13.6s.66.81,1.47.52c.3-.1.47-.37.69-.57.68-.63,1.45-1,2.16-1.56a9.55,9.55,0,0,1,2-1.51,8.65,8.65,0,0,1,2.74,0c1.39,0,2.81.09,4.2,0a2.61,2.61,0,0,0,2-1.33c.51-.65.77-1.21,1.54-1.5a6,6,0,0,1,2.51-.61l2.56,140L321.5,650.5l-18-111-.05.48a9.53,9.53,0,0,1,1.13-3.75,28.77,28.77,0,0,1,1.83-2.81,12.6,12.6,0,0,1,1.83-2.62,22.65,22.65,0,0,0,2.2-2.29,4.1,4.1,0,0,1,2.62-1.82c.87-.28,1.75-.41,2.63-.7a13.42,13.42,0,0,1,7.06-.13,10.09,10.09,0,0,1,6,3.6c.71.95.7,2.18,1.32,3.17.89,1.4,1.28.36,2.56,0,3.43-1,9.06,1.66,10.8,4.5,1.31,2.14,1.88,3.77,1.3,6.27-.19.84-.34,1.1.19,1.82a22.26,22.26,0,0,1,1.52,1.93,8.36,8.36,0,0,1,1.6,4.74,25.08,25.08,0,0,1-.8,3.18c-.13.63-.53,1.89-.24,2.39.48.87,1.93.37,2.78.43a6.86,6.86,0,0,1,2.06.56,9.07,9.07,0,0,1,4.29,2.94,8.25,8.25,0,0,1,1.08,5.7c-.13.92-1.59,4.2,0,4.44.57.09,2-.84,2.58-.92a20.33,20.33,0,0,1,2.59,0,10.85,10.85,0,0,1,4.54.95,20,20,0,0,1,3.07,2.13c1.1.71,2.34,1,3.4,1.79a5.08,5.08,0,0,1,2.18,3,7.91,7.91,0,0,0,.54,2c.76-.44.9-1.51,1.64-2a3,3,0,0,1,2-.4,20.53,20.53,0,0,1,4.15.22c1.61.3,3.21.26,4.79.56.91.17,3.69-.23,3.5,1.41Z"/><path class="cls-1" d="M388.66,580.27c27.36-3,54.94-5.1,82.19-8.92,3.21-.45,4.15-3.46,7.14-4.63s5.5.73,8-.87c.22-.14.36-.48.55-.68,1.67-1.81,2.07-2.92,4.59-3.95,3.25-1.32,5.56-.64,8.9.06a1.58,1.58,0,0,0,1.7-.68c1.23-1.81,2-4,3.68-5.56,3.17-2.89,7.93-2.55,11.8-1.67a1.53,1.53,0,0,0,1.46-.39,34.7,34.7,0,0,1,4.32-3.7,6.88,6.88,0,0,1,5.09-1.73c.53,0,1,.39,1.56.27,3.11-.66,3.68-4.47,5.62-6.69a53.81,53.81,0,0,1,4.13-4.55c2.14-1.94,4.89-2.29,7.66-2.48,2.05-.14,1.07-1,3.63.24.38.19.7.52,1.09.7a7,7,0,0,0,3.71,1c2-.33,2.5-2.16,3.77-3.49,2.52-2.65,5.81-3.14,9.26-2.06,1.16.37,2.36,1.19,3.59,1.16,1.52,0,2.19-1,3.47-1.93a8.66,8.66,0,0,1,5.88-1.72c1.55,0,3.32.26,4.72-.62,1.72-1.08,2.24-2.57,4.55-2.88l-1.9-1.44,2.24,122.63.32,17.41,1.5-1.5-91.52-4.25L355,650.55,321.5,649l1.45,1.1-15.79-97.37L305,539.1c-.3-1.8-2.78-1.14-2.95.4L302,540c-.21,1.93,2.75,1.87,3,0,.87-6.69,7.66-12.87,14.26-13a12.11,12.11,0,0,1,4.54.76c3.18,1.22,3.1,2.19,4.57,4.61.6,1,.94,2,2.14,2.44,1.42.51,3.78-.94,5.3-.72,3.82.55,7.2,3.58,7.48,7.4.12,1.65-.29,2.59.21,4.07.32.94,1.22,1.54,1.71,2.37,2.61,4.45.68,4.65.37,8-.27,2.85.93,3.07,3.27,3.53,4.26.85,7.58,3.24,6.69,8.32-.2,1.13-.78,2.31-.38,3.47,1,3,3.75,1,5.94.82,3.3-.3,5.49,1.43,8.15,2.9,3,1.67,4.31,2.57,5.43,5.87a1.52,1.52,0,0,0,2.51.66c2-2.35,4-2.05,6.73-1.76.79.09,6.69.28,6.84.87l1.85-1.85-3.5-1.41c-1.79-.72-2.57,2.18-.8,2.9l3.5,1.41c1.1.44,2.11-.84,1.85-1.85-.83-3.08-4.79-2.49-7.33-2.79-4.82-.56-8-1.48-11.26,2.36l2.51.66c-.86-2.51-1.13-4.22-3.41-5.87a44.22,44.22,0,0,0-6.84-4.07c-2.67-1.22-5.37-.18-7.92-.92-1.78-.52-.6,1.34-.85-1-.13-1.26.39-2.63.18-4a7.88,7.88,0,0,0-2.68-5c-1.92-1.66-4.36-1.52-6.22-2.72-1,.38-1.32.08-1.1-.92a24.69,24.69,0,0,0,.81-3.18,8.08,8.08,0,0,0-.78-4c-.44-1-1.23-1.86-1.71-2.84-.75-1.52-.38-1.86-.56-3.41a11.62,11.62,0,0,0-8.63-10.47,11.94,11.94,0,0,0-2.9-.58c-.38,0-2.88.46-3,.39-1.66-.74-2.74-4-4.46-5.13-10.48-7.06-24,2.59-25.48,13.79h3l.05-.48-2.95.4,15.79,97.37,2.21,13.63a1.52,1.52,0,0,0,1.45,1.1L413,656.24,559.44,663l33.45,1.55a1.52,1.52,0,0,0,1.5-1.5l-2.24-122.64-.32-17.4a1.53,1.53,0,0,0-1.9-1.45c-3,.41-4.22,2.87-7.07,3.42-2.07.4-4.23-.55-6.3.2s-3,3-5.11,3-4-1.41-6.2-1.44a11.37,11.37,0,0,0-7.44,2.84c-.71.62-1.78,2.84-2.46,3.09-2.09.78-3.94-2.21-6.11-2.24a26.63,26.63,0,0,0-7.78,1.23c-4.19,1.41-8.38,6.67-10.6,10.27-1.77,2.87-1.61,2.15-4.56,2.31-2.14.11-3.66,1.54-5.3,2.75a24.16,24.16,0,0,1-3.45,2.65c-1.65.74,3.26.61-1.87.36a25.25,25.25,0,0,0-7.66.29c-4.8,1.19-6.34,5.08-8.87,8.78l1.69-.69c-3-.63-6.07-1.52-9.18-1s-4.61,2.67-6.75,4.74c-1.42,1.38-.76,1-2.61,1-1.47,0-2-.28-3.55.13a12.09,12.09,0,0,0-6.19,3.88c-1.29,1.38-1.48,1.22-3.76,1.46l-8.67.94-55.74,6-15.73,1.71C386.76,577.48,386.74,580.48,388.66,580.27Z"/><path class="cls-1" d="M386.5,572.13c-.45-.49-.82-1.45-1.27-1.9a4.55,4.55,0,0,0-1.63-1.06,45.93,45.93,0,0,0-4.39-1.58c-1.35-.4-2.46-1-3.9-.64-.69.15-1.37.37-2.05.54a4.43,4.43,0,0,0-1.09.25c-.38.21-.57.72-1.05.7-.36-.34-.35-.84-.72-1.22a10,10,0,0,0-1.06-1,7.5,7.5,0,0,0-2.11-1.12,2.65,2.65,0,0,0-1-.15,7.28,7.28,0,0,1-1.23-.17,19.64,19.64,0,0,0-2.43,0,7.77,7.77,0,0,0-1.37.16c-.39.06-.77,0-1.15.09a16.14,16.14,0,0,0-2.87,1.39,9.58,9.58,0,0,0-1.37.91,15.43,15.43,0,0,0-1.39.83c-.32.27-.74.55-1,.83s-.51.9-.89,1.28C352.49,570.23,404.51,591.77,386.5,572.13Z"/><path class="cls-1" d="M387.8,571.38c-3.82-5.8-11.48-7-17.44-4.23l2.05.53c-4.63-7.79-16.79-4.58-21.22,1.79a1.53,1.53,0,0,0,.9,2.21c8.87,3.66,18.06,7.15,27.43,9.23,3,.65,8.63,2.29,11.22-.19,3.06-2.93-1.24-7.5-3.18-9.65-1.29-1.44-3.4.69-2.12,2.12,2,2.26,5.53,5.7.68,5.69-4.46,0-9.12-1.61-13.34-2.91-6.73-2.06-13.38-4.5-19.89-7.19l.89,2.21c3.11-4.47,12.7-7.41,16-1.79a1.55,1.55,0,0,0,2.05.54c4.21-2,10.59-1,13.34,3.15C386.27,574.5,388.86,573,387.8,571.38Z"/><path class="cls-1" d="M810.33,638.23c.76.76.78,2.17,1.43,3a5.67,5.67,0,0,1,.71,1.09,8.8,8.8,0,0,0,1.06,1.59,11.5,11.5,0,0,0,.92,1.59c.43.47.75,1,1.15,1.45.76.95,2.1,1.54,3,2.37a16.47,16.47,0,0,1,1.25,1.61,6,6,0,0,1,1,1.12,5.19,5.19,0,0,0,1,1.48c.56.56.75,1.19,1.24,1.75.26.29.66.49.92.79s.34.63.6.89c.43.43,1,.69,1.46,1.1s.7.84,1.08,1.2a4.52,4.52,0,0,0,2.18,1c1,.27,2.29.34,3.09,1,1,.92.81,2.87,1.38,4.07a12.54,12.54,0,0,0,1.87,2.41c.49.61.82,1.26,1.54,1.61a7.25,7.25,0,0,1,1.79,1.19,5.87,5.87,0,0,0,2.4,1.11c5.55,1.71,11.34,3.21,17.15,2.06,1.66-.33,3.48-.38,5.11-.88a6.05,6.05,0,0,1,1.32-.32c.58-.06.92.06,1.43-.29.68-.48.73-.79,1.66-.6.65.13,1.34.39,2,.57a14.14,14.14,0,0,0,2.64.65,24.38,24.38,0,0,1,2.7.39c2.76.56,5.7,1.43,8.57.81a28.32,28.32,0,0,0,4-1.39c1.48-.56,3.71-1.33,4.88-2.42a12.11,12.11,0,0,0,2.76-3.89c.69-1.56.49-3.3.48-5a9.5,9.5,0,0,0-1.43-4.42,13.4,13.4,0,0,0-1.12-1.66,2,2,0,0,1-.41-2.16,7.61,7.61,0,0,0,.09-4.58,11.16,11.16,0,0,0-7.7-7.11,29.55,29.55,0,0,0-4.6-.4c-1,0-2,.24-3,.34a30.29,30.29,0,0,0-4.14.56,18.2,18.2,0,0,1-7.6-.08c-1.07-.19-2-.58-3.08-.8a11.53,11.53,0,0,1-2.23-.89c-1.8-.76-3.61-1.69-5.45-2.31-1.39-.46-2.94,0-4.31.42a25.34,25.34,0,0,0-4.82,2.06c-.77.41-2.74.7-2.17,1.85.35.68,1.37,1,2.05,1.22,1.34.48.52.92.71,2.22a2.85,2.85,0,0,0,1.6,2.13,13.76,13.76,0,0,0,5,1.18c.63.08,2-.17,2.55.16.28,2.21-1.93,3-3.57,3.49a19.52,19.52,0,0,1-5.86.55c-2.08,0-4.29-.89-6.28-1.44a14.81,14.81,0,0,0-3.64-.74,14,14,0,0,0-1.71.22,10.33,10.33,0,0,0-1.36.4c-1.2.29-2.62-.75-3.7-1.23a17.32,17.32,0,0,1-3.2-1.73c-1.31-.94-2.92-1.26-4.24-2.16l-2.24-1.57c-1.69-1.16-3.25-2.57-5-3.65a29.55,29.55,0,0,1-4.6-3.35"/><path class="cls-1" d="M469.62,564.05c-1.86-.34-2.42-2.53-3.65-3.76a26.83,26.83,0,0,0-4-3.29c-1.19-.75-3.33-.36-4.7-.37-1.57,0-3.14,0-4.71,0a7.35,7.35,0,0,1-4.36-1.5c-1.51-1.09-1.33-2.17-1.31-4a11.49,11.49,0,0,0-1.73-5.7,2.2,2.2,0,0,1-.38-2.59c.86-1.36,3.25-1.53,4.32-2.92,1.39-1.82,1.55-4.11,3.8-5.32,1.56-.84,3.17-.6,4.83-.72,2.48-.19,3.48-2.49,5.84-2.74,1.83-.18,2.69,1.43,4.13,2.36a25.61,25.61,0,0,0,2.33,1.23,3.68,3.68,0,0,0,4.33-.63,3.07,3.07,0,0,1,.65-.53c.95-.55,1.41-.28,2.41-.36,4.32-.35,2.39-3.53,1.07-5.71-1.49-2.47-.47-5.59-1.89-8.16-2-3.68-5.47-4-9.23-4.23-4.15-.31-7.06-3.81-10.5-5.7-4.72-2.59-10.6-2.42-15.71-1.29-4.19.94-7.78,4.61-12,5s-8.29-.53-12.38,1c-3.08,1.13-4.78,4-5.55,7-1.13,4.44-5.88,2.73-9.39,3.93-4.86,1.67-9.38,3.8-12.47,8.12-.85,1.19-1.32,2.6-2.06,3.86-1.55,2.62-4.5,3.46-7.13,4.83-1.79.94-4.45,2.15-5.61,3.93s-.64,4.27-1,6.21c-.59,3.28-2.17,5.52-.89,8.76.94,2.36,2.51,4.42,3.46,6.8a4.18,4.18,0,0,0,2.59,2.91c4.3,2.37,6.58,6.85,10.28,10,10.21,8.63,22.57,13.29,35.63,15.71,6.93,1.28,13.67,1.16,20.69,1.45,4.33.18,8.7.81,13,.3,4.14-.48,8.26-1.48,12.34-2.33s6.85-1.94,8.92-6a23,23,0,0,0,2.13-9.33c.11-4.47,4.68-11.78-3.41-14.32"/><path class="cls-1" d="M590.71,521.46a23.83,23.83,0,0,0,7.43.44c1.94-.27,1.86-.51,2.65-1.87.41-.7.85-1.4,1.27-2.1a15.77,15.77,0,0,1,3.85-3.75c1.11-.89,2.36-2.4,3.68-2.95,2.24-.92,4.76-.73,7.08-1.15a20,20,0,0,1,3.93-.36,4.76,4.76,0,0,0,2.14-.29c1.29-.54,2.19-1.7,3.45-2.28a28.39,28.39,0,0,1,3.38-1.23,7.28,7.28,0,0,1,2.08-.55c1.52,0,3.05,0,4.57,0,.79,0,1.64.08,2.42,0s1.07-.4,1.56-1c.93-1.19,1.79-2.32,2.8-3.42.76-.83,1.55-1.55,2.35-2.34.64-.64,1.14-1.59,1.95-2a9.38,9.38,0,0,1,3.89-.89,13.67,13.67,0,0,0,5.4-.68c1-.47,1.34-1.91,2-2.69a6.33,6.33,0,0,1,1.6-1c.52-.25,1.13-.41,1.67-.61,1.12-.41,6.34-.21,7.52-.21l-137,130,280-271,1,1-222,317,110-161a48,48,0,0,1,3.67,7.26c.22.86.48,1.69.67,2.54.11.46,0,.93.1,1.4a6.42,6.42,0,0,1,.24,1.39c0,1.06,0,2.11,0,3.17a6.09,6.09,0,0,1-.93,3.08,9.72,9.72,0,0,0-.87,3.14,2.11,2.11,0,0,0,.88,1.67c.46.46.79.94,1.22,1.43a8.63,8.63,0,0,0,1.18.91c.73.55,1.2,1.33,1.89,1.94a29.79,29.79,0,0,1,3.25,3.3A22.08,22.08,0,0,1,715,542a77.33,77.33,0,0,1,3.72,10c.28.81.87,1.44,1.16,2.23a16.1,16.1,0,0,1,.51,2.31c.45,2.14.9,4.28,1.3,6.43a39,39,0,0,1,1,4.58c.09,1.32,0,2.68,0,4a28.21,28.21,0,0,1-.64,3.39c-.09.84.14,1,.91,1.17a15.36,15.36,0,0,1,2.27.91,31.43,31.43,0,0,1,3.31,2.34c.62.41,1.31.52,1.92,1a9.25,9.25,0,0,1,1.79,1.8c1.6,2.1,3.12,5.24,3.07,7.93,0,.4-.2,1.26.07,1.58s2,.08,2.41.1a24.84,24.84,0,0,1,4,.63A20,20,0,0,1,745,593c.71.27,1.35.79,2.07,1s1.08-.15,1.72-.5a8.28,8.28,0,0,1,4.41-.88,20,20,0,0,1,4.38,0,6.85,6.85,0,0,1,1.73.92c1,.62,2.18,1.15,3.16,1.83a5.17,5.17,0,0,1,1.39,1.52c.67,1,1.45,1.85,2.17,2.82a10.08,10.08,0,0,1,1.67,4.28,12,12,0,0,1,0,1.59c0,.43-.24,1.62.08,2s2-.19,2.57-.26a12.55,12.55,0,0,1,6.16.67c2.67,1,5.51,1.42,8,3a45.66,45.66,0,0,1,4.79,3.63,16.19,16.19,0,0,1,2.63,3.19,19.81,19.81,0,0,1,3.16,7.44c.07.37.15.75.23,1.12s0,.92.09,1.3c.29,1,1.39,1.73,2.11,2.45a37.27,37.27,0,0,1,2.72,2.76,18,18,0,0,1,2.08,3.65,16,16,0,0,1,1.78,7.74,12.39,12.39,0,0,1-1.56,4.74h.93a7.79,7.79,0,0,1,2.16.06,7,7,0,0,1,2,1.32,26.14,26.14,0,0,1,3.72,4.46,9.66,9.66,0,0,1,2.33,5.2c0,.63,0,1.29,0,1.92a7.85,7.85,0,0,1,0,1c0,.29-.43.94-.22,1.21.33.45,2.17-.27,2.52-.32a10.94,10.94,0,0,1,2.62-.05c1.09.11,1.93,1,2.92,1.38s1.94.86,2.94,1.41a9.58,9.58,0,0,1,3.47,4.08,8.26,8.26,0,0,1,.53,2.45,6.84,6.84,0,0,1,0,1.75c-.08.34-.36.64-.32,1,.77.73,3.29.28,4.31.28,2,0,3.54,1.23,5.38,1.84,2.29.75,3.84,2.68,5.57,4.25a5,5,0,0,1,1,1.24,4.5,4.5,0,0,0,.62,1.08c.93.43,2.38-.87,3.29-1.15a19.86,19.86,0,0,1,5.71-.48h2.49a11.25,11.25,0,0,1,3.36.54,5.6,5.6,0,0,1,2.21,1.31,8.67,8.67,0,0,1,2.11,1.69c.36.56.69,1.17,1.06,1.73s.53,1.36,1,1.55,2-.46,2.54-.65a19.12,19.12,0,0,1,4.44-.7,30.59,30.59,0,0,1,8,.21,19.31,19.31,0,0,1,7.94,3.33,26.82,26.82,0,0,1,2.47,2c.72.62,1.39,1.08,2.28.81,2-.61,3.54-2.48,5.42-3.35a16.15,16.15,0,0,1,5.43-1c1.14-.1,2.34-.22,3.5-.29s1.17,0,1.83-1c2.07-3.4,3.88-6.22,7.22-8.52a18.2,18.2,0,0,1,7.52-2.94c1.61-.25,3.84.78,5.16-.41a9.52,9.52,0,0,1,3.17-2.28,20.5,20.5,0,0,1,2.74-.82c2.51-.56,5.29-1.81,7.88-1.14a21.5,21.5,0,0,1,2.67,1.06,9.05,9.05,0,0,1,3,1.54l.14.16c1.47-1.47,2.94-3.14,4.91-3.85,2.12-.77,4.41-.54,6.63-.54,1.3,0,3.14-.37,4.39.08.91.33,1.34,1.31,2.15,1.74,1.61.85,2.42-.39,3.3-1.65a17.54,17.54,0,0,1,4-4.6,20,20,0,0,1,8.08-2.66c1.34-.14,1.93.28,2.79-.95,1-1.4,1.21-3.13,2.28-4.56,2-2.67,4.46-6.15,7.51-7.7a14.82,14.82,0,0,1,4.16-1.21c1.59-.31,2.9-1.13,4.45-1.53a14.11,14.11,0,0,1,7.81-.15c1,.34,2.18.55,3.13,1,1.6.68,1.88,1.61,3.82,1.29,2.41-.41,4.52-2.08,6.84-2.92a11.33,11.33,0,0,1,4.41-.83,9.58,9.58,0,0,1,4.76,1.1,14.24,14.24,0,0,1,4.58,2.75,27.85,27.85,0,0,0,2.17,1.92c.55.45,1.48,1.61,2.12,1.81,1.69.52,3.9-2,5.35-2.78a26.26,26.26,0,0,1,8.4-2.53c2.61-.36,6.46,1.32,8.87,2.14a27.85,27.85,0,0,1,4.49,1.6c1.2.67,1.81,2.24,3.11,1.61.77-.38,1.12-1.43,1.66-2.07a12.42,12.42,0,0,1,2.66-2.51c2.74-1.78,6.84-1.38,10-1.39,4,0,6.65,1.39,9.83,3.84.54.42,1.12.81,1.65,1.24,1.13.93,1.13,1.45,2.42,1,2.05-.66,3.73-1.58,6-1.75a5.62,5.62,0,0,1,4.49,1.38c1.15,1,1.39,2.6,2.43,3.58l1-1.28c0-1.76,2.64-3.62,4.11-4.25a9.86,9.86,0,0,1,4.43-.37c3.58.38,6.7,3,8.94,5.51.82-.65.91-1.91,1.62-2.68a11.26,11.26,0,0,1,3.16-2.06,19,19,0,0,1,8.37-1.77c3.06,0,6.45-.45,9.46.12,2.8.53,6,.62,8.43,2.3,2,1.39,3.78,3.06,5.85,4.44,1.37.91,1.88.42,3.29-.23a32.74,32.74,0,0,1,5.13-1.68,22.33,22.33,0,0,1,6.22-.37c1.09,0,1.77.56,2.48-.38s.34-2,.51-2.86a17.14,17.14,0,0,1,.93-2.84,17.49,17.49,0,0,1,6-7.21l31.23,113.92c-168.93,28-397.32,33.2-612.55-13.82a765.65,765.65,0,0,1-76.7-20.93"/><path class="cls-1" d="M298,521c-.92-.18-1.38.73-2.26.37s-1.61-2-2.07-2.72a10.49,10.49,0,0,0-5.23-3.81c-3.1-1.29-5.65-2.34-9.08-2.32a30.36,30.36,0,0,1-5-.14c-1.63-.25-4.11-.06-4.84-1.82-1.24-3,1.56-6.77-1.56-8.78-1.15-.74-2.79-1.46-3.38-2.83-.18-.42,0-.74-.08-1.15-.39-1.75-.41-2.75-1.48-4.37a19.21,19.21,0,0,0-1.55-2.36,35.94,35.94,0,0,0-3.34-2.46c-1.47-1.23-3.12-1.55-4.63-2.56-1.78-1.2-1.37-2.91-1.35-4.86a18.47,18.47,0,0,0,0-2.23c-.13-1.08-.74-1.64-1.13-2.66a17,17,0,0,0-.78-2.31,29.32,29.32,0,0,0-1.82-2.63,12.78,12.78,0,0,0-1.85-2.52c-.6-.53-1.41-.8-1.91-1.44-1.11-1.44-.56-4.87-.56-6.47,0-3.16.38-6.16-1.2-9-1.14-2-1.69-3.06-3.93-3.74a42.13,42.13,0,0,0-7.35-1.7c-2.2-.24-3.89-1.29-6,0-.9.57-1.34,1.53-2.46,1.79-1.78.4-3.74-.86-5.31-1.51-4.5-1.88-9.33-3.3-13.88-.94a28.65,28.65,0,0,1-4.67,2.33,26.08,26.08,0,0,1-3.17.61c-2,.34-4,1.49-5.77-.06-.74-.67-1.08-1.61-1.77-2.28a11.84,11.84,0,0,0-5.51-2.94,36.43,36.43,0,0,0-7.34-1.38c-1,0-2,0-2.92,0-1.19,0-3.62.51-4.69-.07-2-1.09-.91-4.67-1.73-6.56a21.15,21.15,0,0,0-11.79-11c-3.45-1.36-9-2.87-12.31-.28l-.67,1.36c-.07-4.39-.94-6.69-4.73-9.44-1.25-.91-2.39-1.89-3.63-2.84-2-1.52-3.46-1.75-5.57-2.39s-1.05-1.91-.38-3.62a13.92,13.92,0,0,0,1.25-5.2c.09-4.12.14-8.09-2.59-11.48-1.45-1.8-4.43-2.88-6.26-4.27A11,11,0,0,0,118,385c-.88-.39-1.92-.08-2.82-.46-4.68-1.95-.41-10.84-3.23-14.37-.66-.84-2.09-1.53-2.8-2.25s-1.09-1.7-1.79-2.52c-1.35-1.57-4-2.29-4-4.41,0-.56.67-1.8.76-2.51a25.1,25.1,0,0,0,0-3,10.77,10.77,0,0,0-1.61-6.58c-1.22-2.07-2.36-4.22-4.25-5.74s-4.36-2.34-6.41-3.66C90.08,338.39,88,336.57,86,336c-2.42-.73-6-.18-8.55-.13-2.19,0-3.59.56-4.08-2-.19-1,.48-2.62.53-3.68a22.77,22.77,0,0,0,0-3.09,13.55,13.55,0,0,0-2-6c-1.45-2.41-3.67-6.26-6.19-7.79-2.2-1.35-4.56-1.44-3.35-4.91.13-.36.95-.68,1.14-1.07a6.34,6.34,0,0,0,.61-2.34,16.48,16.48,0,0,0-.16-5.06,9.25,9.25,0,0,0-1.51-2.68c-.94-1.52-1.28-3.21-2.17-4.7C55.93,285.38,45.8,281,37.68,281.09c-1.5,0-4,.48-5.33-.11-2.39-1-2-5.13-3-7.27-1.24-2.64-3.12-4.17-5.35-5.9a22.41,22.41,0,0,0-3.31-2.62c-1.29-.66-2.12-.5-2.46-2.06-.38-1.74.2-2.59-.7-4.27a16.53,16.53,0,0,0-4.94-6c-4-2.58-5.79-2.24-10.1-1.35v216S150,623.5,360,677.5l-28-131S320.92,525.55,298,521Z"/><path class="cls-1" d="M298,519.53c-2.75.33-3.17-2.31-5.23-4a24.15,24.15,0,0,0-10.59-4.27c-4.08-.63-10.64,1.26-11.34-4.25-.37-2.93.49-4.37-2.08-6.52-1.38-1.15-2.18-1.51-2.77-3.09a35.33,35.33,0,0,0-1.32-4.17c-1.75-3.42-4.33-4.93-7.46-7-2.49-1.64-3.25-2.59-3.49-5.62a12.79,12.79,0,0,0-.67-3.78c-1.32-3.65-3.42-6.25-5.65-9.31-4.14-5.68.94-14.65-5.58-19.58-2.81-2.12-7.16-2.43-10.51-3-1.45-.25-3-.74-4.48-.43-3.12.65-2.48,2.67-6.87,1.59-3.31-.81-6.16-2.72-9.7-2.91-5-.26-8.16,2.81-12.82,3.94-5.32,1.29-7.72-2.74-12.16-4.48-4.27-1.68-8.44-1.65-12.89-1.91-3.24-.19-3.56-1.51-4.16-4.46a12.08,12.08,0,0,0-1.84-4.11,23.13,23.13,0,0,0-9.53-8.27c-4.62-2.22-13.5-4.84-16.42,1l2.8.76c-.16-4-1-6.86-4-9.6a39.56,39.56,0,0,0-5.09-4,28,28,0,0,0-2.73-1.53,10.58,10.58,0,0,0-1.72-.59c-1.44-.42-1.71-1.15-.82-2.2.09-1.8,1.19-3.68,1.31-5.6a26.43,26.43,0,0,0-.29-6.41c-.89-4.7-3.37-6.87-7.19-9.31-1.46-.93-2.78-2-4.24-2.95-1.88-1.17-3.57-.75-4-3.48a10.71,10.71,0,0,1,0-2.12c.09-3.11.52-6.17-1.36-8.84a35.68,35.68,0,0,0-4.59-4.77c-.51-.47-1.48-1.11-1.94-1.61-2.85-3.07-1-1.19-1-3.43-.1-4.54.27-7.71-2.06-11.78-2.56-4.45-5.2-6.1-9.56-8.57S86.91,334,81.76,334.1c-.83,0-5.51.9-6.25.3s0-6.15-.11-7.3c-.36-4.4-2.89-8.57-5.61-11.93-1.31-1.62-2.86-2.36-4.28-3.7l-.9-.44c-1.06-1.17-1.09-2.06-.07-2.67,0-.16.34-.44.39-.66,1.21-5.21.58-7.93-1.85-12.63a27.33,27.33,0,0,0-21-15.13c-2.37-.37-4.76.08-7.08-.18-4.11-.47-2.93-3.47-4.16-6.45-1.82-4.4-6.13-6.31-9.35-9.42-1.86-1.79-1.6-3.45-2.63-5.79a16.66,16.66,0,0,0-4.57-5.85c-3.85-3.12-7.52-3.13-12.16-2.2A1.52,1.52,0,0,0,1,251.5V457.55c0,3-.64,6.74,0,9.65.33,1.49,1.2,2.16,2.28,3.26,7.52,7.68,15.37,15,23.32,22.27a889.58,889.58,0,0,0,116.29,89c58.74,37.82,122.14,69,189,89.46q13.74,4.22,27.67,7.8a1.53,1.53,0,0,0,1.85-1.85l-13.69-64-9.5-44.45c-1.54-7.2-2.24-15.43-4.78-22.37-1.34-3.67-4.57-7.16-7.12-10a52.25,52.25,0,0,0-28-16.65c-1.89-.4-2.69,2.49-.8,2.89a49.62,49.62,0,0,1,26.67,15.88,59.79,59.79,0,0,1,5.5,7.27c.46.72.91,1.66.87,1.52,2.33,6.77,3.1,14.54,4.6,21.53l18.37,85.94,5,23.29,1.85-1.85c-69.59-18-135.7-47.78-197-85.08A892.45,892.45,0,0,1,37.53,498.48c-9.88-8.7-19.57-17.61-28.9-26.89-1.64-1.63-3.36-3.23-4.89-5-.18-.21,0,1.51.26.14a20.42,20.42,0,0,0,0-3.83V266.41c0-4.3.48-8.91,0-13.19a16.45,16.45,0,0,1,0-1.72L2.9,253c3.82-.77,6.67-.85,9.84,1.89,2.81,2.43,2.66,5.48,4,8.49,1.28,2.84,3.68,3.51,6.18,5.54,2.13,1.73,4.35,3.4,5.29,6.12.49,1.42.44,3,1,4.39,1.24,3.05,3.33,3.4,6.44,3.33a29.42,29.42,0,0,1,13.94,2.7c5.71,2.74,8.15,6.44,11.1,11.79,1.34,2.42,2.82,5.67,1.72,8.56-.44,1.17-1.34,1.64-1.71,2.86-.83,2.74.79,3.89,2.8,5.22,4.68,3.08,9,8.92,8.9,14.8,0,2.46-1.71,6.15.79,8,2.16,1.64,6.1.42,8.53.42,4.88,0,10.44,3.78,14.51,6.52,4.82,3.25,7.16,9.71,6.19,15.31-.5,2.9-.45,3.59,1.66,5.78,2.56,2.67,7.31,6.09,7.4,10,.06,2.86-.81,6.19.58,8.87a5.42,5.42,0,0,0,2.33,2.29c1.92,1.08,4.17,1.68,6.15,2.93,3.66,2.31,6,4.2,6.49,8.9a20.18,20.18,0,0,1-.64,8c-1,3.13-2.45,5,.93,6.78,1.16.61,2.61.68,3.81,1.31a30.56,30.56,0,0,1,3.81,2.83c3.46,2.64,5,4.56,5.21,9.08.05,1.39,2.09,2.16,2.79.76,1.72-3.44,7.31-1.83,10.2-.8,4.49,1.59,9.29,4.85,11.33,9.33,1,2.25.23,5.69,1.94,7.62s4.23,1.22,6.43,1.12c5.87-.27,11.26,1,15.58,5,2.35,2.18,3.41,2.5,6.62,1.94a27.7,27.7,0,0,0,6.29-1.62c2.41-1.05,4.54-2.63,7.28-2.84,4.91-.38,8.45,3.13,13,3.67,3.06.36,4.86-2.24,8-2.15,4.93.13,11,1.72,12.45,6.82,1,3.67-.11,7.23.42,10.92.48,3.35,3.2,4.58,5.08,7.32a19.1,19.1,0,0,1,2.12,4.3c1.07,2.86.44,4.13.9,6.84.5,2.94,2.64,3.59,5,4.94,4.29,2.42,6.07,5,7.35,9.53.75,2.66,2.92,3.41,4.1,5.79,1.29,2.6-.43,6.25,2.13,8.42,2.2,1.87,6.69,1.39,9.25,1.45,6,.16,11,2.18,14.76,6.85,1.72,2.13,2.22,1.91,4.71,1.62C299.84,522.3,299.86,519.3,298,519.53Z"/><path class="cls-1" d="M1862.5,268V543.5s-282,187.57-671.51,217.79l5.61-117.84c-1.1-1,.46-.44,1.31-.6a12.54,12.54,0,0,1,1.84,0,12.28,12.28,0,0,1,4.2.26c1.35.51,2.17,1.76,3.27,2.62.65.51,1.42,1.23,2.3,1.1s1.38-1.21,2.16-1.58c2.58-1.25,6.44-.75,9.22-.68,3.58.11,6.08,1.63,8.72,3.89,2.26-2.5,3.4-4.36,6.78-5.49a18,18,0,0,1,5.83-.71,15.79,15.79,0,0,1,5.92,1.15c1.46.61,1.15,1.46,3,.13,1.22-.89,2-2.26,3.28-3,2.49-1.46,6.12-1.58,8.92-1.7,3.19-.14,7.27-.45,10.39.45a14.59,14.59,0,0,1,4.39,2.45,15.12,15.12,0,0,1,2.48,1.7c.84.84,1.11,2.32,2.29,2.78.6-.59.7-1.43,1.18-2.12s1.15-1.24,1.69-1.92a9,9,0,0,1,2.56-2.75,9.1,9.1,0,0,1,4.35-1.16c.77,0,1.06.46,1.93.19s2-2,2.52-2.76a19.28,19.28,0,0,1,10.11-7.59,31.83,31.83,0,0,1,5.53-1.25c1.4-.17,2.9.19,4.28,0,3.1-.46,5.28-4.2,8.42-5.09a10.05,10.05,0,0,1,3.63-.14c1.3.2,2.23,1.22,3.44,1.59,1.06.31.59.78,2-.17.81-.56,1.48-1.31,2.31-1.86a19.18,19.18,0,0,1,7.89-2.57,64,64,0,0,1,8.86-.41,9.73,9.73,0,0,1,3.4.39c.92-.78,1-2.53,1.66-3.58a10.26,10.26,0,0,1,3.3-3.19,20.38,20.38,0,0,1,4.67-2.68c1.17-.35,1.13,0,1.94-1.24a28.9,28.9,0,0,0,1.61-3.59,55.63,55.63,0,0,1,6.93-10.76c1.56-1.89,2.67-2.86,5.1-3.22a37.24,37.24,0,0,1,12.15.16c1.19.23,2.64.95,3.88.81a10.1,10.1,0,0,0,2.43-1.07,23.07,23.07,0,0,1,3.69-1.21,13.31,13.31,0,0,1,6.35-.42c1.22.3,1.72,1.08,2.76,1.54,1.75.76,4-1.4,5.41-2.27a13,13,0,0,1,5-1.68,33.89,33.89,0,0,1,16.94,2c.6-.39.81-1,1.24-1.54a7.11,7.11,0,0,1,2.78-2.08,13.89,13.89,0,0,1,5.15-1.42c3.68-.17,6.24.71,8.06,4.05l.92.26c.14-2.55,3-3.65,4.93-4.5s4.15.1,6.22-.39c1.35-.32,1.69-1.53,2.29-2.66a20.88,20.88,0,0,1,2.66-4.25,11.07,11.07,0,0,1,6-3.54,16.62,16.62,0,0,1,6.17,0c1.25.26,2.07,1.2,3.29.56s1.33-2.19,1.8-3.16c1.49-3.09,3.79-3.94,6.88-4.79a15,15,0,0,1,3-.79,15.52,15.52,0,0,0,3-.07c.32-.94.08-2,.42-3a12.17,12.17,0,0,1,1.45-3.07,16.92,16.92,0,0,1,6.88-5.63c1-.46,2.52-.61,3.27-1.52s1-2.6,1.62-3.71a14,14,0,0,1,2.75-3.14c1.17-1.26,1.81-2.75,3.43-3.55,2.87-1.43,5.7-.61,8.67-1,1.93-.25,2.5-2.54,4.09-3.8a6.77,6.77,0,0,1,3.2-1.85,24,24,0,0,1,3.49.06,14.82,14.82,0,0,1,6.53,1.23c2.29.92,4.67,2.37,6.52.31,1.43-1.6,1.8-2.91,4-3.46a49.63,49.63,0,0,1,8.43-1.2,60.21,60.21,0,0,1,6.85,0,34.22,34.22,0,0,1,4.49.76c1.34.25,1.7.54,1.91-.94.24-1.77-.16-2.62.86-4.15a7.33,7.33,0,0,1,2.62-2.48c2.77-1.43,4.81-.05,5.77-3.72,1.57-6,8-8.33,12.93-11.06,1.41-.77,1.24-1.68,1.29-3.19a14.24,14.24,0,0,1,1-5.83,8.65,8.65,0,0,1,3.36-3.4c1.16-.8,2.62-1.11,3.43-2.21s.64-2.36.88-3.53a13.23,13.23,0,0,1,1.23-3.82,10.34,10.34,0,0,1,3.66-4.3,14.75,14.75,0,0,1,11.21-1l1.7.28c0-2.09-.49-3.95,1.65-5.06a23.85,23.85,0,0,0,2.45-1.72,6.25,6.25,0,0,1,2.54-.59,24.08,24.08,0,0,1,4.9-.42,19.47,19.47,0,0,1,2.29,0c1.16.14,1.76,1.15,2.93,1.27.45-.61.49-1.45,1-2.14a13.24,13.24,0,0,1,1.5-1.84c1.42-1.51,2.47-2.28,4.57-2.3,1.07,0,2.14,0,3.21,0a9.18,9.18,0,0,0,2.34,0c1.29-.43,1.47-3,1.79-4.28.78-3.15,1.23-6.16,3.63-8.57,1-1,2.39-1.63,2.75-3.08a14.3,14.3,0,0,0,0-3.27,10.91,10.91,0,0,1,.07-2.68,19.08,19.08,0,0,1,1.53-2.89,14.08,14.08,0,0,1,3.87-5.27,10,10,0,0,1,3.13-2,23.57,23.57,0,0,0,2.6-.45c1-.44,1-1,1.71-1.94a3.51,3.51,0,0,1,2.66-1.58c2.23-.47,5-1.5,7.26-.94a35.6,35.6,0,0,1,3.56,1.06c.86.32,1.55.86,2.4,1.21a4.85,4.85,0,0,0,1.11.38,3,3,0,0,1,1.24.86c1.24.42,1.5-.19,2.29-1.17a8.64,8.64,0,0,1,2.48-2.59c1-.54,2.33-.41,3.43-.64,2-.42,3.83,0,5.82,0,.79-1.08.53-2.47.67-3.71a10.43,10.43,0,0,1,1.27-3.79c1-1.76,2.55-2.6,3.94-3.9,1.19-1.11,1.2-2.91,1.16-4.45a19.06,19.06,0,0,1,.71-6.15c.78-2.59,3.38-4.37,5.27-6.2a25.33,25.33,0,0,1,5.7-4.28c1.47-.79,1.35-1,1.68-2.88.45-2.55,1.12-5.26,3.33-6.84A18.27,18.27,0,0,1,1744,387c1.38-.5,1.4-1.69,2.11-2.87a10.74,10.74,0,0,1,3.14-3.33,16.39,16.39,0,0,1,12.12-2.06c1.47.33,4.69.74,5.49,2.07l1.51-.27c0-3.88.39-7.76,3.29-10.63a7.75,7.75,0,0,1,4.2-2.39c1.59-.34,3.32.19,4.85-.24.71-2.2-.12-4.92.08-7.23.28-3.32,2.17-6,3.68-8.83a15.75,15.75,0,0,1,7.14-6.54,27.9,27.9,0,0,1,3.17-1.51c.79-.29,1.8-.42,2.53-.7,1.6-.62,1.22-.18,1.84-2,.26-.8.42-1.59.72-2.38a45.69,45.69,0,0,1,2.87-6.57,15.54,15.54,0,0,1,6.24-5.9c1.92-1,5.66-2.51,7.73-2.18h.74c0-2.07,0-4.14,0-6.22a14.54,14.54,0,0,1,2.19-7.66,22.27,22.27,0,0,1,6.7-6.69,9.38,9.38,0,0,1,2.77-1.53c.85-.21,2,.25,2.61-.6-.19-1-.79-1.86-1-2.85a16.41,16.41,0,0,1,0-2.89,14.78,14.78,0,0,1,1.67-5.43,10,10,0,0,1,5.58-5.41,11,11,0,0,1,3.33-.71c.68,0,1.89.28,2.51,0,1.09-.55,1.11-2,1.49-3,.55-1.44,1.45-2.73,2.08-4.14,1.14-2.52,2.92-7.15,5.1-8.71,1.65-1.18,7-10.54,9-11s1.86.32,1,10"/><path class="cls-1" d="M1861,268V540.38a8.2,8.2,0,0,0,0,2.32c.51,1.39-1,.1.74-.49-1.85.63-3.8,2.46-5.44,3.49q-7.82,4.93-15.76,9.65c-19.64,11.71-39.68,22.74-60,33.3q-46.42,24.17-94.45,45.05-61.47,26.82-125,48.49-74.3,25.34-150.82,43.33a1473.65,1473.65,0,0,1-173.91,30q-22.68,2.51-45.41,4.27l1.5,1.5,5-105.19.47-9.93c.08-1.68.41-2.88-.69-4.25l-.66,2.51c3-1.25,7.44,1,9.54,2.39,1.25.82,2.32,1.81,3.94,1.41,1-.25,1.13-.93,1.94-1.35a10.53,10.53,0,0,1,4.87-.94c4.44-.07,8.13.73,11.65,3.61a1.52,1.52,0,0,0,2.12,0c4.16-4.73,9.21-7.21,15.66-5.16,3,1,3.68,2.1,6.41-.27,4.58-4,10.64-4.26,16.58-3.94a14.19,14.19,0,0,1,8,2.85c1.76,1.26,2.8,2.92,4.46,4.24a1.53,1.53,0,0,0,2.35-.3,46.22,46.22,0,0,1,2.87-4.05c1.88-2.39,3.77-2.21,6.55-3,2.1-.57,2.62-.7,4.13-2.52,3-3.56,5.37-6.37,9.9-7.89,3.58-1.2,7.52-.32,10.93-1.57,2.78-1,4.46-3.94,7.29-4.77,3.09-.9,5.05,2.19,7.76,1.86.76-.08.88-.4,1.65-.74,2.25-1,4.07-2.89,6.57-3.65a33.5,33.5,0,0,1,14.74-.65,1.54,1.54,0,0,0,1.69-.69c1.65-2.44,1.57-3.89,4.42-6.22,1.55-1.27,3.56-1.73,5.16-2.75,2.13-1.34,2.56-3,3.61-5.3,1.9-4.15,5.38-11.22,9.82-13,4.76-1.92,10.54-.12,15.25.58,3,.45,5.33-1.52,8.21-2.18a13.66,13.66,0,0,1,5.55-.42q1.21.68,2.4,1.38a5.2,5.2,0,0,0,2.25.29c1.43-.16,2.55-1.22,3.72-1.91a15.6,15.6,0,0,1,6.9-2.35c5.07-.53,10,.55,14.81,2.18a1.49,1.49,0,0,0,1.46-.39c2.86-3,6.93-5.86,11.4-4.33,2.55.87,2.85,3.3,5.29,4a1.52,1.52,0,0,0,1.85-1c1.37-5.7,8.77-1.92,11.94-5,1.38-1.33,1.87-3.56,3-5.13a10.67,10.67,0,0,1,9.48-4.42c2.85.1,5.4,2.25,7.63-.45,1.56-1.89,1.57-4.18,4-5.6,2.61-1.52,5.95-1.71,8.86-1.92a1.53,1.53,0,0,0,1.45-1.1c.41-3,1.08-5.41,3.39-7.67,2.11-2.07,4.23-2.39,6.63-3.81,2.74-1.63,3-4.49,5-6.95,1.26-1.58,3.76-4.23,5.49-4.77,2.23-.7,4.71.24,7-.38,3.81-1.06,4-5,8.63-5.63s7.81,2.36,12,2.62c2.51.16,3.2-1.21,4.88-2.65,4-3.45,10.45-3.32,15.57-3.08,2,.1,6.4,1.94,8.37.72s.94-4,1.87-5.72c1.7-3.13,5.22-1.87,7.3-4.11,1.15-1.23,1.25-3,2-4.45a13.42,13.42,0,0,1,4.76-4.56c2.26-1.45,6.08-2.33,7.78-4.45s.56-5.24,1.35-7.67c1.36-4.18,6-4.06,7.65-7.76,1.87-4.29.87-8.89,6.57-10.8,3.46-1.16,6.51-.28,9.91.26a1.52,1.52,0,0,0,1.9-1.44c-.21-7.47,10.07-6.75,14.86-5.1a1.51,1.51,0,0,0,1.69-.69c1.34-2.93,3.17-5,6.54-5.54,1.56-.25,3.44.52,5,0,2.21-.73,2.47-2.88,2.94-4.9.69-2.95,1.18-6,3.34-8.36.79-.85,1.93-1.41,2.54-2.43a7.49,7.49,0,0,0,.72-4.16,11.84,11.84,0,0,1,2-6.84c1.13-1.89,2.64-4,4.71-5,1.54-.74,3.17-.61,4.63-1.55,1.63-1.05,2.45-2.44,4.51-3.11,3.3-1.07,6.35-.51,9.47.9,2.48,1.12,4.08,2.88,6.68,1.52,1.67-.88,2.67-2.92,4.67-3.71s4.88-.25,7-.16a1.45,1.45,0,0,0,1.29-.74,9.63,9.63,0,0,0,.82-3.19c.48-3.4,1.48-4.59,3.77-7,2.08-2.2,2.5-3.35,2.66-6.42.16-3.27.17-5.93,2.49-8.47a47.54,47.54,0,0,1,4.1-3.8c1.79-1.55,5.07-2.67,6.23-4.81a14.18,14.18,0,0,0,.73-3.31c1-4,3.14-4.73,6.44-6.7,3-1.79,3.48-5.3,6.77-7.05a16.43,16.43,0,0,1,12.8-.55c2.5,1,2.25,1.59,4.8,1.14a1.5,1.5,0,0,0,1.1-1.45c0-3,.21-6.06,2.1-8.56,2.32-3.07,5.26-2.81,8.74-3.2a1.55,1.55,0,0,0,1.45-1.1,32.11,32.11,0,0,0,.11-6.2c0-3.63,1.91-7.13,3.87-10.12a16.59,16.59,0,0,1,7-5.79c1.65-.78,4.75-1.07,6.22-2.36a5.1,5.1,0,0,0,1.24-2.38c1.07-2.9,1.79-5.9,3.44-8.59a15.84,15.84,0,0,1,13.41-7.33,1.53,1.53,0,0,0,1.5-1.5c0-6-.25-11.22,4.16-15.93,1.65-1.75,3.82-3.72,6.11-4.48,1.28-.42,2.1-.24,3.25-1a1.53,1.53,0,0,0,.69-1.69c-1.52-4.46-.9-9.56,2.6-13a9,9,0,0,1,5.56-2.37c1-.12,2.25.3,3.27-.24,1.75-.94,2-3.32,2.66-4.93a73.5,73.5,0,0,1,4.27-8.68c2.1-3.37,5.21-6.64,7.61-9.87.76-1,1.65-1.92,2.43-2.91.61-.77,0-1,0-.27,0,2.85-.34,5.69-.59,8.52-.17,1.92,2.83,1.91,3,0,.21-2.38,2.64-11.73-2.13-11.57-4.26.13-7.86,8.63-10.27,11.36-2.68,3-4,6.22-5.84,9.85-.74,1.48-1.51,4.31-2.68,5.37-.93.84-3.54.53-4.93,1-7.67,2.38-10.24,11.7-7.88,18.6l.69-1.69c-1.5,1-3.68,1-5.37,2.13a24,24,0,0,0-6.28,5.77c-3.6,5-3.35,10.26-3.36,16.09l1.5-1.5a19.27,19.27,0,0,0-11.64,3.94,17.53,17.53,0,0,0-5.18,6.46c-1.18,2.39-1.58,6.4-3.32,8.22-1.47,1.53-5.74,2.33-7.7,3.53a17.88,17.88,0,0,0-5.26,4.61,31.45,31.45,0,0,0-4.27,7.85c-1.24,3.53-.14,6.78-.81,10.36l1.44-1.1c-4.33.48-7.49.07-10.6,3.63-2.74,3.14-3.18,7.13-3.24,11.13l1.1-1.44c-1.48.26-.43,0-.93-.18-1-.31-1.81-.82-2.82-1.1a22.81,22.81,0,0,0-8.61-.8,15.69,15.69,0,0,0-7.42,2.72c-2.9,2.12-4.07,5.06-7.21,6.92-2.4,1.43-4,2.54-5.15,5.19-.58,1.34-.46,3.11-1.1,4.35-.93,1.78-2.84,2.51-4.46,3.79-4.91,3.87-8.59,7.5-8.86,14-.13,3.08-.77,4.29-2.85,6.72a15.34,15.34,0,0,0-2.34,3,13.81,13.81,0,0,0-1.13,3.56c-.51,2.37-.07,2.39-2.85,2.44s-5.15.29-7.34,1.73c-1.07.7-1.1,1.37-2.43,1.82-1.92.65-3.17-.71-5-1.38-5.28-1.95-10.89-1.4-15.17,2.15-1.95,1.62-4.58,1.94-6.72,3.69a21.67,21.67,0,0,0-5.43,7.37,7.94,7.94,0,0,0-1,4.23c0,3-.35,4-2.32,6-2.67,2.72-3,6.21-4.11,9.68-.73,2.33-1.11,2.45-3.39,2.68-1.87.19-3.59-.16-5.35.64-2.64,1.21-4.24,3.87-5.39,6.38l1.7-.69c-4.24-1.45-9.06-2.16-13.45-.22-4.05,1.78-5.33,4.06-5.21,8.22l1.89-1.45c-4.63-.75-9.09-1.82-13.54.57a11.72,11.72,0,0,0-5,5.72,31.23,31.23,0,0,0-1.11,3.56c-.85,2.71-2.43,3.89-4.62,5.56a9.25,9.25,0,0,0-3.56,5,16.8,16.8,0,0,0-.46,3.32c-.18,2.64-.45,3.14-2.8,4.55-5.14,3.09-8.27,4.94-11.22,10.19-1.69,3-4,2.28-6.44,4.22-1.81,1.42-2.12,3-2.92,5-.73,1.78,0,1.62-2.38,1.22a33.41,33.41,0,0,0-4.34-.44,54.24,54.24,0,0,0-11.52.83,11.57,11.57,0,0,0-5.88,2.75c-2.69,2-3.54,2-6.34.91a18.89,18.89,0,0,0-4.18-1.14c-2.55-.34-5.78-.79-8.19.38-2.85,1.38-3.84,4.69-7.11,5.18-3.49.52-6.62-.28-9.43,2.48a37.5,37.5,0,0,0-5.35,6.81c-2.21,3.49-5.65,4.12-8.65,6.82s-4.2,5.6-4.74,9.5l1.45-1.1c-4.63.33-10.3.82-13.33,4.9-.43.57-.66,1.31-1.08,1.85-2.1,2.72-2.12,1.71-4.59,1.34a15.43,15.43,0,0,0-7,.61,12.89,12.89,0,0,0-5.28,3.53,19.27,19.27,0,0,0-2.5,3.81c-1.27,2.34-2,2.27-4.5,2.7-4,.69-8.37,1.32-9.48,5.95l1.84-1c-1-.28-2-2.26-2.94-2.9a10.08,10.08,0,0,0-5.77-1.46,15,15,0,0,0-7.1,1.9c-2,1.11-2.48,2.63-4.81,2.39-6.13-.64-11.61-2.67-17.85-.61-2.45.81-4.85,3.49-7.55,3-2.07-.39-3.38-1.55-5.79-1.39-2.57.18-4.82,1.24-7.25,1.86-3.31.84-6,0-9.32-.25-4.72-.38-10.4-.55-14,2.93a38.25,38.25,0,0,0-5.41,7.3c-1.63,2.63-2.83,6.94-5.3,8.93-1.87,1.51-4.52,2.21-6.44,3.85-2.23,1.91-2.5,3.92-4.1,6.29l1.7-.69a38.82,38.82,0,0,0-12.86,0,23.5,23.5,0,0,0-6.64,1.79c-1.16.53-2.15,1.65-3.27,2.12-1.67.71-1.19.59-3,0-.5-.16-1-.51-1.5-.68a8.75,8.75,0,0,0-3.67-.29c-3.88.48-5.8,4-9.37,5-4,1-7.93.57-12,2.24-3.47,1.44-5.69,3.71-8.26,6.34a10,10,0,0,1-4.91,3.21c-1.5.42-3,.43-4.36,1.29-2.66,1.66-4.36,4.75-6,7.33l2.36-.3c-2.35-1.87-3.42-3.77-6.14-5.45a14.78,14.78,0,0,0-5.47-2.23c-5-.9-12.6-.9-17.35,1.14a9.2,9.2,0,0,0-2.79,1.8,10,10,0,0,1-2.47,2.2l-.83-.46c-2.66,0-5.28-1.45-8.17-1.33-5.58.24-8.62,2.58-12.17,6.61h2.12c-5.73-4.69-12.33-5.3-19.4-3.6-1.71.41-1.84,1.18-4-.08-1.34-.77-2-1.79-3.57-2.2-1.85-.48-6-.78-7.85,0a1.54,1.54,0,0,0-.66,2.51c-.24-.31-.16-.79-.09.21a22,22,0,0,1-.12,2.43l-.4,8.46-1.34,28.07-3,63.44-.7,14.64a1.52,1.52,0,0,0,1.5,1.5,1458,1458,0,0,0,177.84-25.12,1563.39,1563.39,0,0,0,157.49-40.9q67.46-21.28,132.9-48.39,52.13-21.58,102.65-46.81c23.46-11.75,46.63-24.1,69.33-37.25,10.36-6,20.91-12,30.81-18.71,1.92-1.3,2-2.25,2-4.57V268a1.5,1.5,0,0,0-3,0Z"/></svg>