<svg id="mountains" xmlns="http://www.w3.org/2000/svg" viewBox="0 0 1865 777"><defs><style>.cls-1{fill:#0061e7}</style></defs><path class="cls-1" d="M1350 616.08l118 11s84-79 83-85-75.17-30.3-75.17-30.3c-1.61.3-3.58-1.86-5-2.42-1.67-.67-3.38-.73-5.11-1.26-1.56-.48-3.08-1.05-4.66-1.53-.86-.26-1.71-.22-2.56-.48-1.14-.33-2.06-1.12-3.31-1.38a23 23 0 01-4.69-1.18 6.86 6.86 0 00-2.78-.91 11.82 11.82 0 01-3.23-.55c-2.06-.67-4-1.21-6.07-1.72s-4.22-1.7-6.48-1.81c-4.48-.22-9.15-.14-13.64 0-1.06 0-2 .45-3 .55s-1.94-.08-2.9 0c-1.43.06-2.78.51-4.2.55s-2.75-.12-4.11 0c-4.79.26-9.2 2.65-13.74 4-1.93.56-4.22.74-6 1.62-.85.43-1.64.76-2.52 1.13-1.26.54-2.22 1.54-3.42 2.19-3.65 2-5.82 5.18-8.67 8a86.54 86.54 0 00-6.36 7c-.84 1.05-1.63 2.13-2.54 3.13-1.1 1.21-1.81.9-3.51.87-3.32-.06-5.41 2-8.17 3.44-1.21-.65-2.31-2-3.44-2.91a34.52 34.52 0 00-3.8-2.55c-2.26-1.34-4.89-3-7.66-2.59-1.66.26-3.44 1.42-5 2.09-1 .44-2.59 1.38-3.73 1.34-1.87-.07-2.69-2.17-4.22-2.94a20.1 20.1 0 00-4.4-1.09c-6.55-1.52-13.51-.89-20.2-.89h-24.74a48.56 48.56 0 01-12-1.54 52.47 52.47 0 00-12.77-1.51h-16c-2.25 0-5.37-.48-7.59.2-1 .3-1.9.91-2.88 1.24-1.16.38-2.39.51-3.55.89-2 .62-3.81 1.54-5.72 2.27a22.32 22.32 0 00-3 1.08c-.76.42-1.42 1-2.19 1.45a17 17 0 00-2.49 1.51 13.37 13.37 0 01-1.87 1.58c-2.19 1.18-5.37.31-7.77.71-3.15.53-6.47-.26-9.6.37a28.71 28.71 0 01-6.09.4c-3.08 0-6.11.57-9.16.5a22.37 22.37 0 00-5.08.64c-2.37.5-4.84.51-7.27.89-3.56.56-7.15.86-10.7 1.53-3 .56-5.9 1.42-8.9 1.91-4.86.78-9.54 2.63-14.35 3.58a10.18 10.18 0 01-6.14-.9c-1.36-.62-2.62-1.87-4.15-2l-.19.39c-.87-1-6.43-4.46-7.55-5.08a32.81 32.81 0 00-3.33-2.06c-1.18-.5-2.15-1.27-3.31-1.8a31.85 31.85 0 00-4.55-1.2c-.54-.16-.9-.69-1.41-.84a6.13 6.13 0 00-2-.09c-1.39 0-2.62-.45-4-.54-3.16-.19-6.42 0-9.6 0h-7.26a32.35 32.35 0 01-3.55 0c-1.56-.17-3-1-4.57-1a36.46 36.46 0 01-7-1.12 15.4 15.4 0 00-3.56-.91c-2.48-.06-5 0-7.47 0a7.12 7.12 0 00-3.83.62c-1.61.84-3.23 1.67-4.87 2.44-3.4 1.61-6.91 2.26-10.54 3.17a12.86 12.86 0 01-4.34.42c-1.67-.15-3.3-1.16-5-1.51a47.59 47.59 0 00-9.91-1.07 28.17 28.17 0 00-5.51.39c-1.85.36-2.83 0-4.15 1.62a24.76 24.76 0 01-2.94 3.21 44.71 44.71 0 00-3.56 3.85c-.51.55-1.13 1-1.63 1.57a27.89 27.89 0 01-1.92 2.52 4.69 4.69 0 01-3.19 1.1c-1.29-.07-2.18-1-3.39-1.54s-2.33-1.27-3.55-1.93c-1.67-.9-3.57-1.37-5.3-2.17a31.41 31.41 0 00-12.59-3 19.47 19.47 0 00-9.75 2.84 3.9 3.9 0 00-1.54 1.6 8.87 8.87 0 01-.77 1.69 6.28 6.28 0 01-2.63 1.58c-2.06.7-4.34.8-6.25 1.93-.84.49-1.27 1.35-2 1.94-1.05.89-2.29 1.2-3.4 2-1.55 1.16-3.71 4.25-5.8 4.21l1 .51c-1.14-.62-1.89-1.62-3-2.17s-2.08-.74-3.07-1.26a5.77 5.77 0 00-2.14-.62c-1.43-.22-2.65-.94-4.08-1s-1.7-.07-2.7 1.03a12.74 12.74 0 01-2.82 2.52 29.94 29.94 0 01-3.43 1.76c-1.26.62-2.34 1.49-3.56 2.18-4.79 2.69-9.71 4.82-13.73 8.59-.92.86-1.54 1.79-2.54 2.59a27.85 27.85 0 01-3.68 2.52 26.66 26.66 0 01-8.64 2.95 51.09 51.09 0 01-9.5.62c-3.11 0-6.23.06-9.34 0a16.56 16.56 0 01-4.15-.93 17.65 17.65 0 01-2.4-.39 12.73 12.73 0 01-1.93-1.25c-1.35-.84-2.84-1.42-4.19-2.28a16 16 0 01-3.08-2.34c-1.09-1.24-1.07-3.14-2-4.43-.63-.87-1.8-1.37-2.59-2.11-1.07-1-2.17-2.56-3.67-3a7.26 7.26 0 00-1.92 0c-1.49-.11-2.52-1.47-3.59-2.37-1.32-1.09-2.51-2.3-3.91-3.29a15.81 15.81 0 00-2.39-1.71 16.49 16.49 0 00-2-.41c-1.49-.49-2.94-1.6-4.42-2.22s-3-1.34-4.59-1.89c-2.84-1-5.71-2-8.52-3a15.51 15.51 0 00-4.66-.89 27.72 27.72 0 01-4-.89c-3.21-.76-5.43-3.64-8.74-3.71a21.08 21.08 0 00-5 .12c-.53.12-1 .4-1.53.55-.77.23-2.15.17-2.67.87l-.51-.5c-1.22-1.21-2.61-2.14-3.83-3.31a11.31 11.31 0 00-3.39-2.44c-1.33-.54-3-.39-4.22-1.14a5.73 5.73 0 01-1.52-1.76 11.69 11.69 0 00-2.55-2.41 100.83 100.83 0 00-10.13-6.7c-2.76-1.72-4.8-4-8.12-4.58a7.45 7.45 0 00-4.39.45c-1.53.77-3.18 1.16-4.78 1.8s-2.89 1.32-4.37 1.92a12 12 0 01-5.1.87 25.87 25.87 0 01-3 0c-.76-.09-1.38-.46-2.12-.56-2.14-.31-4.38-.19-6.53-.6-4.68-.89-9.38-2.07-14-3.33-3.75-1-7.53-2.68-11.43-2.65-3.7 0-7.52-.32-11.21 0-2.16.17-4 1.31-6.08 1.82-2.91.73-6.07.5-9 1.12-2.58.53-5.18.92-7.75 1.41a36.51 36.51 0 01-6.86.25 33.33 33.33 0 01-4.58 0c-1.59-.24-2.84-1.25-4.25-1.95a12.9 12.9 0 00-3-.82c-2.4-.56-4.23-.89-6.26-2.3-2.22-1.53-4.93-2.2-7.38-3.33-2-.9-3.9-1.85-5.86-2.78a41.53 41.53 0 01-5.88-2.77c-1.91-1.29-2.91-3.39-4.84-4.76-.71-.5-1.29-1.09-2-1.62-1.27-1-3-1.3-4.41-2-2.35-1.2-4.77-2.83-7.45-3.06-1.48-.13-2.88-.51-4.37-.51a8 8 0 01-2.29-.24c-2.64-.71-5.89-.26-8.63-.26-2.55 0-5.4-.37-7.91.12-4.5.89-7.36 5.73-11.85 6.9-1.17.3-2.4 0-3.57.14a8.32 8.32 0 00-2.83 1 17.15 17.15 0 00-3.23 2c-.63.56-1.06 1.49-2 1.53-2.23 0-5 .4-7.13-.11a11.33 11.33 0 00-1.91-.4 5 5 0 01-1.14-.1 6.1 6.1 0 01-1.49-.9c-.65-.43-1.48-.71-2.09-1.13a12.12 12.12 0 01-1.6-1.82 6.85 6.85 0 00-2.44-1.53 38.83 38.83 0 00-4.11-1.52 35.31 35.31 0 00-9-1.66 16.25 16.25 0 01-2.7-.08c-.83-.17-1.58-.65-2.4-.82a18 18 0 00-3.67-.1h-9.9a33.68 33.68 0 01-11.85-2.15c-3.48-1.24-6.77-3-10.2-4.35a26.64 26.64 0 00-5.07-1.25c-1.39-.27-2.78-.24-4.17-.5-1.57-.3-3.2-.48-4.74-.9-2.07-.55-2.88-1.92-4.54-3.1-1.5-1.06-3.41-1-5-1.85a15.83 15.83 0 01-4.1-3.07 22.68 22.68 0 01-3.52-4.19c-1.15-2.16-3-3.33-5-4.6a44.06 44.06 0 01-4.71-3c-.35-.29-.48-.69-.91-.92a12.46 12.46 0 00-3.08-.47 36.36 36.36 0 00-14.25.24 31.91 31.91 0 00-6.68 2 45.39 45.39 0 01-5.33 1.72c-1.94.7-3.89 1.36-5.83 2.09-3.42 1.28-6.28 3.6-9.77 4.66a49 49 0 01-5.67 1.53c-3.79.67-7.61.2-11.43.74-2.24.31-4.52.54-6.69 1-2.43.55-4.79 1.38-7.21 2.05-4.85 1.34-9.64 3.07-14.42 4.68-2.16.73-4.82 1.25-6.74 2.54s-4.52 2.44-6.21 4.08c0 0-92.82 50.24-70.82 57.24 0 0 634 148 931 74"/><path class="cls-1" d="M336 501s-20-19-34-25-65 19-65 19l34 47 65 14.12M1486 537s39.82-28.27 48-26c15.06 4.18 25.24 2.44 24 3l63 6 27 26-89 27-90-42"/></svg>