<svg id="sky" xmlns="http://www.w3.org/2000/svg" viewBox="0 0 1865 777"><defs><linearGradient id="linear-gradient" x1="663.92" y1="237.5" x2="718.92" y2="237.5" gradientUnits="userSpaceOnUse"><stop offset=".11" stop-color="#003"/><stop offset=".38" stop-color="#000437"/><stop offset=".67" stop-color="#001044"/><stop offset=".96" stop-color="#002459"/><stop offset="1" stop-color="#00275c"/></linearGradient><style>.cls-1{fill:#93a6c9}.cls-2{fill:#00275c}</style></defs><path class="cls-1" d="M1706.34 83.19a.75.75 0 000-1.5.75.75 0 000 1.5zM1731.66 112a.75.75 0 000-1.5.75.75 0 000 1.5z"/><path class="cls-2" d="M1254.75 340.64h1.25a.46.46 0 01.36.17l5.45 6.36 4.66.93H1287s4.66 0 5.59 1.86c0 0 5.59 1.87 0 2.8 0 0-2.75.92-23.74.93a3.6 3.6 0 01-1-.13L1255.3 350v-1l-2.8-.93v-.93l3.06.76a.41.41 0 00.5-.5l-1.6-6.41a.3.3 0 01.29-.35zM375.62 296.24s8.1-12.34 16.61 0c0 0 19.93 3.8.94 8.07 0 0-7.11 3.8-17.55 0 0 0-19.94-3.79 0-8.07z"/><path class="cls-1" d="M1169.18 288.64a1.5 1.5 0 000-3 1.5 1.5 0 000 3zM1373.17 249.37a.75.75 0 000-1.5.75.75 0 000 1.5zM1196.28 233.68a.75.75 0 000-1.5.75.75 0 000 1.5zM1326.1 285a.75.75 0 000-1.5.75.75 0 000 1.5zM1413.11 295a.75.75 0 000-1.5.75.75 0 000 1.5zM1461.61 249.37a.75.75 0 000-1.5.75.75 0 000 1.5zM1437.36 255.08a.75.75 0 000-1.5.75.75 0 000 1.5zM1477.31 277.9a.75.75 0 000-1.5.75.75 0 000 1.5zM1515.82 402a.75.75 0 000-1.5.75.75 0 000 1.5zM1592.85 335a.75.75 0 000-1.5.75.75 0 000 1.5zM1321.82 410.57a.75.75 0 000-1.5.75.75 0 000 1.5zM1435.94 432a.75.75 0 000-1.5.75.75 0 000 1.5zM993.72 316.42a.75.75 0 000-1.5.75.75 0 000 1.5zM1008 205.15a.75.75 0 000-1.5.75.75 0 000 1.5zM776.89 213.71a.75.75 0 000-1.5.75.75 0 000 1.5zM685.6 292.17a.75.75 0 000-1.5.75.75 0 000 1.5zM838.23 272.2a.75.75 0 000-1.5.75.75 0 000 1.5zM958.06 372.05a.75.75 0 000-1.5.75.75 0 000 1.5zM853.92 419.13a.75.75 0 000-1.5.75.75 0 000 1.5zM902.42 315a.75.75 0 000-1.5.75.75 0 000 1.5zM979.46 210.86a.75.75 0 000-1.5.75.75 0 000 1.5zM812.56 155.22a.75.75 0 000-1.5.75.75 0 000 1.5zM816.83 179.47a.75.75 0 000-1.5.75.75 0 000 1.5zM745.51 183.75a.75.75 0 000-1.5.75.75 0 000 1.5zM1083.59 360.64a.75.75 0 000-1.5.75.75 0 000 1.5zM544.37 346.38a.75.75 0 000-1.5.75.75 0 000 1.5zM480.18 212.28a.75.75 0 000-1.5.75.75 0 000 1.5zM351.8 346.38a.75.75 0 000-1.5.75.75 0 000 1.5zM259.07 235.11a.75.75 0 000-1.5.75.75 0 000 1.5zM223.41 335a.75.75 0 000-1.5.75.75 0 000 1.5zM240.53 346.38a.75.75 0 000-1.5.75.75 0 000 1.5zM263.35 320.7a.75.75 0 000-1.5.75.75 0 000 1.5zM286.18 346.38a.75.75 0 000-1.5.75.75 0 000 1.5zM323.26 367.77a.75.75 0 000-1.5.75.75 0 000 1.5zM347.52 178.05a.75.75 0 000-1.5.75.75 0 000 1.5zM457.36 141a.75.75 0 000-1.5.75.75 0 000 1.5zM501.58 158.08a.75.75 0 000-1.5.75.75 0 000 1.5zM478.75 162.36a.75.75 0 000-1.5.75.75 0 000 1.5zM627.11 208a.75.75 0 000-1.5.75.75 0 000 1.5zM551.51 238a.75.75 0 000-1.5.75.75 0 000 1.5zM615.7 262.21a.75.75 0 000-1.5.75.75 0 000 1.5zM580 259.36a.75.75 0 000-1.5.75.75 0 000 1.5zM614.27 335a.75.75 0 000-1.5.75.75 0 000 1.5zM617.12 413.42a.75.75 0 000-1.5.75.75 0 000 1.5zM413.13 397.73a.75.75 0 000-1.5.75.75 0 000 1.5zM433.11 332.11a.75.75 0 000-1.5.75.75 0 000 1.5zM274.76 189.46a.75.75 0 000-1.5.75.75 0 000 1.5zM1086.44 302.15a.75.75 0 000-1.5.75.75 0 000 1.5zM1153.49 158.08a.75.75 0 000-1.5.75.75 0 000 1.5zM1293.29 155.22a.75.75 0 000-1.5.75.75 0 000 1.5zM1304.7 216.56a.75.75 0 000-1.5.75.75 0 000 1.5zM1414.54 200.87a.75.75 0 000-1.5.75.75 0 000 1.5zM1107.84 232.26a.75.75 0 000-1.5.75.75 0 000 1.5zM1129.24 232.26a.75.75 0 000-1.5.75.75 0 000 1.5zM1115 236.53a.75.75 0 000-1.5.75.75 0 000 1.5zM1587.15 192.31a.75.75 0 000-1.5.75.75 0 000 1.5zM598.58 240.14a1.5 1.5 0 000-3 1.5 1.5 0 000 3zM304.72 427a1.5 1.5 0 000-3 1.5 1.5 0 000 3zM327.54 231.58a1.5 1.5 0 000-3 1.5 1.5 0 000 3zM254.79 201.62a1.5 1.5 0 000-3 1.5 1.5 0 000 3zM1043.65 367.1a1.5 1.5 0 000-3 1.5 1.5 0 000 3zM565.77 412.74a1.5 1.5 0 000-3 1.5 1.5 0 000 3zM942.37 238.71a1.5 1.5 0 000-3 1.5 1.5 0 000 3zM948.07 437a1.5 1.5 0 000-3 1.5 1.5 0 000 3zM1353.2 465.53a1.5 1.5 0 000-3 1.5 1.5 0 000 3zM1560 337.14a1.5 1.5 0 000-3 1.5 1.5 0 000 3zM1505.84 208.75a1.5 1.5 0 000-3 1.5 1.5 0 000 3zM732.67 384.21a1.5 1.5 0 000-3 1.5 1.5 0 000 3zM1651.34 280.08a1.5 1.5 0 000-3 1.5 1.5 0 000 3zM1380.3 338.57a1.5 1.5 0 000-3 1.5 1.5 0 000 3zM1209.18 393.91a.75.75 0 000-1.5.75.75 0 000 1.5zM706.27 428.43a.75.75 0 000-1.5.75.75 0 000 1.5zM681 422.68a.75.75 0 000-1.5.75.75 0 000 1.5zM1551 445.7a.75.75 0 000-1.5.75.75 0 000 1.5zM937.58 141.88a.75.75 0 000-1.5.75.75 0 000 1.5zM1056.12 102.75a.75.75 0 000-1.5.75.75 0 000 1.5zM197.6 87.79a.75.75 0 000-1.5.75.75 0 000 1.5zM308.08 76.28a.75.75 0 000-1.5.75.75 0 000 1.5zM264.35 131.52a.75.75 0 000-1.5.75.75 0 000 1.5zM397.85 138.43a.75.75 0 000-1.5.75.75 0 000 1.5zM811 88.94a.75.75 0 000-1.5.75.75 0 000 1.5zM679.8 118.86a.75.75 0 000-1.5.75.75 0 000 1.5zM1058.42 139.58a.75.75 0 000-1.5.75.75 0 000 1.5zM1243.7 101.6a.75.75 0 000-1.5.75.75 0 000 1.5zM1175.81 105.05a.75.75 0 000-1.5.75.75 0 000 1.5zM1220.69 113.11a.75.75 0 000-1.5.75.75 0 000 1.5zM1435.89 130.37a.75.75 0 000-1.5.75.75 0 000 1.5zM1586.65 143.78a1.5 1.5 0 000-3 1.5 1.5 0 000 3zM1540.62 95.45a1.5 1.5 0 000-3 1.5 1.5 0 000 3zM1330 115a1.5 1.5 0 000-3 1.5 1.5 0 000 3zM994 115a1.5 1.5 0 000-3 1.5 1.5 0 000 3zM744.25 142.63a1.5 1.5 0 000-3 1.5 1.5 0 000 3zM172.29 151.84a1.5 1.5 0 000-3 1.5 1.5 0 000 3zM1651.1 166.8a1.5 1.5 0 000-3 1.5 1.5 0 000 3zM1615.42 105.05a.75.75 0 000-1.5.75.75 0 000 1.5zM1637.29 231.64a.75.75 0 000-1.5.75.75 0 000 1.5zM1563.63 291.49a.75.75 0 000-1.5.75.75 0 000 1.5z"/><circle cx="691.5" cy="237.5" r="27.5" fill="url(#linear-gradient)"/><path class="cls-1" d="M1382.45 155.45a.38.38 0 000-.75.38.38 0 000 .75zM1504.16 144.28a.38.38 0 000-.75.38.38 0 000 .75zM1485.17 84a.38.38 0 000-.75.38.38 0 000 .75zM1380.22 57.19a.38.38 0 000-.75.38.38 0 000 .75zM1186 47.52a.75.75 0 000-1.5.75.75 0 000 1.5zM1069.83 39.7a.75.75 0 000-1.5.75.75 0 000 1.5zM1091 75.43a.75.75 0 000-1.5.75.75 0 000 1.5zM905.7 74.31a.75.75 0 000-1.5.75.75 0 000 1.5zM882.25 132.37a.75.75 0 000-1.5.75.75 0 000 1.5zM969.34 91.06a.75.75 0 000-1.5.75.75 0 000 1.5zM955.94 36.35a.75.75 0 000-1.5.75.75 0 000 1.5zM556.22 38.59a.75.75 0 000-1.5.75.75 0 000 1.5zM579.67 46.4a.75.75 0 000-1.5.75.75 0 000 1.5zM580.79 83.25a.75.75 0 000-1.5.75.75 0 000 1.5zM502.63 90a.75.75 0 000-1.5.75.75 0 000 1.5zM555.11 160.29a.75.75 0 000-1.5.75.75 0 000 1.5zM722.59 46.4a.75.75 0 000-1.5.75.75 0 000 1.5zM607.58 133.49a.75.75 0 000-1.5.75.75 0 000 1.5zM406.61 26.3a.75.75 0 000-1.5.75.75 0 000 1.5zM378.7 82.13a.75.75 0 000-1.5.75.75 0 000 1.5zM464.67 50.87a.75.75 0 000-1.5.75.75 0 000 1.5zM464.67 106.69a.75.75 0 000-1.5.75.75 0 000 1.5zM261.46 16.25a.75.75 0 000-1.5.75.75 0 000 1.5zM297.19 132.37a.75.75 0 000-1.5.75.75 0 000 1.5zM239.13 73.2a.75.75 0 000-1.5.75.75 0 000 1.5zM399.91 175.92a.75.75 0 000-1.5.75.75 0 000 1.5zM162.09 282a.75.75 0 000-1.5.75.75 0 000 1.5zM114.08 327.77a.75.75 0 000-1.5.75.75 0 000 1.5zM168.79 343.4a.75.75 0 000-1.5.75.75 0 000 1.5zM163.21 385.83a.75.75 0 000-1.5.75.75 0 000 1.5zM128.59 303.2a.75.75 0 000-1.5.75.75 0 000 1.5zM216.8 394.76a.75.75 0 000-1.5.75.75 0 000 1.5zM80.58 254.07a.75.75 0 000-1.5.75.75 0 000 1.5zM186.65 266.36a.75.75 0 000-1.5.75.75 0 000 1.5zM82.82 205a.75.75 0 000-1.5.75.75 0 000 1.5zM120.78 138a.75.75 0 000-1.5.75.75 0 000 1.5zM153.16 226.16a.75.75 0 000-1.5.75.75 0 000 1.5zM39.27 200.48a.75.75 0 000-1.5.75.75 0 000 1.5zM25.87 101.11a.75.75 0 000-1.5.75.75 0 000 1.5zM69.42 150.24a.75.75 0 000-1.5.75.75 0 000 1.5zM121.9 79.9a.75.75 0 000-1.5.75.75 0 000 1.5zM56 40.82a.75.75 0 000-1.5.75.75 0 000 1.5zM46 68.73a.75.75 0 000-1.5.75.75 0 000 1.5zM118.55 48.63a.75.75 0 000-1.5.75.75 0 000 1.5zM176.61 37.47a.75.75 0 000-1.5.75.75 0 000 1.5zM176.61 73.2a.75.75 0 000-1.5.75.75 0 000 1.5zM69.42 18.49a.75.75 0 000-1.5.75.75 0 000 1.5zM9.13 28.54a.75.75 0 000-1.5.75.75 0 000 1.5zM11.36 168.1a.75.75 0 000-1.5.75.75 0 000 1.5zM133.06 172.57a.75.75 0 000-1.5.75.75 0 000 1.5zM844.29 46.4a.75.75 0 000-1.5.75.75 0 000 1.5zM671.23 67.62a.75.75 0 000-1.5.75.75 0 000 1.5zM1326.63 20.72a.75.75 0 000-1.5.75.75 0 000 1.5zM1326.63 79.9a.75.75 0 000-1.5.75.75 0 000 1.5zM1258.52 47.52a.75.75 0 000-1.5.75.75 0 000 1.5zM1482.94 10.67a.75.75 0 000-1.5.75.75 0 000 1.5zM1557.75 40.82a.75.75 0 000-1.5.75.75 0 000 1.5zM1523.14 40.82a.75.75 0 000-1.5.75.75 0 000 1.5zM1539.88 21.84a.75.75 0 000-1.5.75.75 0 000 1.5zM1657.12 20.72a.75.75 0 000-1.5.75.75 0 000 1.5zM1663.82 71a.75.75 0 000-1.5.75.75 0 000 1.5zM1602.41 58.68a.75.75 0 000-1.5.75.75 0 000 1.5zM1728.58 334.46a.75.75 0 000-1.5.75.75 0 000 1.5zM1623.62 388.06a.75.75 0 000-1.5.75.75 0 000 1.5zM1680.57 392.52a.75.75 0 000-1.5.75.75 0 000 1.5zM1640.37 445a.75.75 0 000-1.5.75.75 0 000 1.5zM1605.76 456.17a.75.75 0 000-1.5.75.75 0 000 1.5zM1586.78 422.67a.75.75 0 000-1.5.75.75 0 000 1.5zM1668.28 354.56a.75.75 0 000-1.5.75.75 0 000 1.5zM1746.44 274.17a.75.75 0 000-1.5.75.75 0 000 1.5zM1694 225.05a.75.75 0 000-1.5.75.75 0 000 1.5zM1782.17 186a.75.75 0 000-1.5.75.75 0 000 1.5zM1823.48 230.63a.75.75 0 000-1.5.75.75 0 000 1.5zM1784.4 297.62a.75.75 0 000-1.5.75.75 0 000 1.5zM1752 227.28a.75.75 0 000-1.5.75.75 0 000 1.5zM1708.48 143.54a.75.75 0 000-1.5.75.75 0 000 1.5zM1783.29 92.18a.75.75 0 000-1.5.75.75 0 000 1.5zM1661.59 101.11a.75.75 0 000-1.5.75.75 0 000 1.5zM1714.06 31.89a.75.75 0 000-1.5.75.75 0 000 1.5zM1857 115.63a.75.75 0 000-1.5.75.75 0 000 1.5zM1836.88 168.1a.75.75 0 000-1.5.75.75 0 000 1.5zM1775.47 133.49a.75.75 0 000-1.5.75.75 0 000 1.5zM1816.78 58.68a.75.75 0 000-1.5.75.75 0 000 1.5zM1769.89 23a.75.75 0 000-1.5.75.75 0 000 1.5zM1836.88 62.78a1.5 1.5 0 000-3 1.5 1.5 0 000 3zM1815.67 243.66a1.5 1.5 0 000-3 1.5 1.5 0 000 3zM1806.73 243.66a1.5 1.5 0 000-3 1.5 1.5 0 000 3zM1795.57 258.17a1.5 1.5 0 000-3 1.5 1.5 0 000 3zM1651.54 388.81a1.5 1.5 0 000-3 1.5 1.5 0 000 3zM1718.53 370.94a1.5 1.5 0 000-3 1.5 1.5 0 000 3zM1489.64 429a1.5 1.5 0 000-3 1.5 1.5 0 000 3zM1437.16 388.81a1.5 1.5 0 000-3 1.5 1.5 0 000 3zM1389.15 34.87a1.5 1.5 0 000-3 1.5 1.5 0 000 3zM1016.23 53.85a1.5 1.5 0 000-3 1.5 1.5 0 000 3zM1146.87 18.12a1.5 1.5 0 000-3 1.5 1.5 0 000 3zM1202.69 60.55a1.5 1.5 0 000-3 1.5 1.5 0 000 3zM1117.84 97.39a1.5 1.5 0 000-3 1.5 1.5 0 000 3zM748.27 34.87a1.5 1.5 0 000-3 1.5 1.5 0 000 3zM728.17 76.18a1.5 1.5 0 000-3 1.5 1.5 0 000 3zM593.07 53.85a1.5 1.5 0 000-3 1.5 1.5 0 000 3zM663.41 22.59a1.5 1.5 0 000-3 1.5 1.5 0 000 3zM410 97.39a1.5 1.5 0 000-3 1.5 1.5 0 000 3zM90.63 285a1.5 1.5 0 000-3 1.5 1.5 0 000 3zM78.35 100.74a1.5 1.5 0 000-3 1.5 1.5 0 000 3zM262.58 48.27a1.5 1.5 0 000-3 1.5 1.5 0 000 3zM163.21 341.91a1.5 1.5 0 000-3 1.5 1.5 0 000 3zM14.71 202.35a1.5 1.5 0 000-3 1.5 1.5 0 000 3zM1727.46 20.35a1.5 1.5 0 000-3 1.5 1.5 0 000 3z"/></svg>