<svg id="st._louis" data-name="st. louis" xmlns="http://www.w3.org/2000/svg" viewBox="0 0 1865 777"><defs><style>.cls-1{fill:#5c98ff}</style></defs><path class="cls-1" d="M846.43 599.33v-4.29h1.17v-6.44h-3.58v.72h-2.86v-.72h-2.87v10.73h1.21v-3.58h.94v-.71h.72v-4.29h2.86v2.86h-2.86v1.43h4.29v4.29M826.7 595.04v-6.44h-3.43v.72h-2.14v-.72h-2.87v6.44h.72v1.43h1.15v-1.43h1v-4.29h2.14v2.86h-2.14v.71h2.14v.72M789.65 595.75v-4.29h.71v-6.44h-3.58v.72h-2.86v-.72h-3.57v6.44h.71v1.43h1.07v-1.43h1.79v-4.29h2.86v3.58h-2.86v.71h4.3v4.29"/><path class="cls-1" d="M962.21 550.65s-10.88-10-21.61 0V555h-2.15v7.15H937v1.43h-1.43v36.49h-2.15v-22.9h-2.12V575h-7.87v-2.15H902v2.86h-10v22.19h-7.2V595h-2.15v-3.58h-8.58v-28.57h.71V560h-3.58v-2.86h-15.74V560h-3.57v2.87h.71v36.48h-17.88l-1.43 42.93h128.06l8.58-71.54s14.31-123.06 72.26-122.34c51.52.64 68 120.19 68 120.19l10.73-1.43s-18.65-120.23-78.69-123C981.38 441.23 961.35 555 961.35 555"/><path class="cls-1" d="M971.63 559.38h3.31v26.36h1.43v-19.32h2.15V565h5.72v-4.3h4.29v-1.43h2.15v-2.15h.71v2.15h1.43v-.72h.72v.72h10.73v.73h6.44v32.2s6.44 2.14 8.58 7.15v3.58h2.15v-4.29h2.86v43.64h-62.95v-45.86"/><path class="cls-1" d="M1045.76 583.59V585h.72v1.43s4.29 0 5 5v10h13.59v1.43h1.43V595h7.16v-2.15h1.43V585h2.14v-.71l5.93.24v57.71h-60.06v-40h13.35v-.71h1.43v-10s1.44-5 5-5V585h.72v-3.57s0-2.15.71-2.15V575h.72v4.29s.71 0 .71 2.15"/><path class="cls-1" d="M1081.53 584.31V542.1h4.3v-3.58h2.17v-3.58h9.3v3.58h2.15v3.58h2.86v21.46h1.43v-2.15l2.86-2.86h20.75v8.59h1.43v1.43h2.15v-47.22l4.29-9.3h15l3.58-5 3.58 5h15l2.86 7.16v35h5v1.43h1.43v1.43h2.86V570h10.74v-1.43h2.86v-.72h2.87v.72h5v-1.43h2.14v-.72h4.3v2.86h2.14v.72h3.58v14.31h.71v-12.88h3.58v-2.15h2.86v2.15h.72v-2.15h5v2.87h1.43v10.73h5.72s0-2.15 3.58-2.86v-35.78h6.44V540h.71v-2.14h1.43V540H1274v4.29h6.44v7.87s2.15 0 2.86 3.58v5.72h2.15v17.17h5s3.57 2.15 3.57 3.58h3.58v-1.43h1.4v-3.58h.72l.71-1.43L1300 656l-218.47-13.74M836.86 597.9h-7.15v-1.43h-1.43v-1.43h-4.29v1.43h-7.87v.71h-8.59v1.44h-6.44v-1.44h-10.73v-1.43h-5.72v-2.86h-5.01v-1.43h-4.29v-.71h-1.43v1.43h-3.58v2.86h-2.86v1.43h-2.86v45.79H834"/><path class="cls-1" d="M1300 575v-16h27v26h2v-6h15v-4h44v59h-88M1200 663l-362 43-53-76h415v33z"/><path class="cls-1" d="M1380.16 592.04v-11.19l29.84.15 1 15h-2v-24l20 .08 14-2.08 10 3v37l-5 1 4-33 20-9h4v1h30v58h-125"/></svg>